<?xml version="1.0" encoding="utf-8"?>
<!-- Generator: Adobe Illustrator 18.1.0, SVG Export Plug-In . SVG Version: 6.00 Build 0)  -->
<svg version="1.1" xmlns="http://www.w3.org/2000/svg" xmlns:xlink="http://www.w3.org/1999/xlink" x="0px" y="0px"
	 viewBox="0 0 595.3 841.9" enable-background="new 0 0 595.3 841.9" xml:space="preserve">
<g id="Слой_2">
</g>
<g id="Слой_1">
	<g>
		<text transform="matrix(1 0 0 1 135 271)" fill="#FFFFFF" font-family="'MyriadPro-Regular'" font-size="72"> </text>
		<g>
			<g>
				<path fill="#FFFFFF" d="M97.8,300.6c-4.3,0.6-6.5,1-10.8,1.7c-2.4-15.3-4.8-30.6-7.3-45.9c-1.4-8.8,0.2-16.1,4.9-22
					s11.5-9.5,20.4-10.7c5.8-0.8,11.2-0.3,15.9,1.4c4.8,1.7,8.7,4.6,11.7,8.6c3,4,4.8,9,5.5,14.8c1.8,15.4,3.5,30.8,5.3,46.2
					c-4.3,0.5-6.5,0.8-10.8,1.3c-1.9-15.2-3.7-30.4-5.6-45.6c-0.8-6.5-3-11.2-6.5-14.2c-3.6-2.9-8.3-4-14.1-3.2
					c-5.9,0.8-10.1,3.1-12.8,6.9c-2.7,3.8-3.5,8.9-2.5,15.4C93.2,270.3,95.5,285.5,97.8,300.6z"/>
				<path fill="#FFFFFF" d="M149.9,256.7c-0.7-6.6,0.6-13.1,3.9-19.3c3.4-6.3,8.2-11.5,14.6-15.6c6.4-4.1,13.5-6.5,21.2-7
					c6-0.4,11.7,0.2,17.1,1.8c5.4,1.7,10.3,4.2,14.4,7.5c4.2,3.4,7.5,7.3,9.9,11.8c2.4,4.5,3.7,9.3,3.9,14.4
					c0.2,5.1-0.7,10-2.6,14.7s-4.7,8.9-8.4,12.7c-3.6,3.8-7.9,6.8-12.9,9.2c-4.9,2.4-10.2,3.7-15.9,4.2c-5.5,0.4-10.8-0.2-16-1.7
					c-5.2-1.5-9.9-3.9-14.2-7.1c-4.3-3.2-7.7-7-10.4-11.3C152.1,266.5,150.4,261.8,149.9,256.7z M161.3,255.4
					c0.4,3.7,1.5,7.2,3.5,10.5c1.9,3.3,4.5,6.2,7.6,8.7c3.1,2.5,6.6,4.3,10.4,5.6c3.9,1.3,7.8,1.7,11.9,1.4
					c4.2-0.3,8.1-1.4,11.8-3.2s6.8-4.2,9.4-7.1c2.6-2.9,4.6-6.1,6-9.7c1.4-3.6,2-7.2,1.8-11c-0.2-3.7-1.2-7.3-2.9-10.7
					c-1.8-3.4-4.2-6.4-7.3-9c-3.1-2.6-6.6-4.5-10.5-5.8c-4-1.3-8.2-1.8-12.6-1.4c-5.8,0.4-11,2.2-15.6,5.3c-4.6,3.1-8.2,7-10.6,11.7
					C161.7,245.6,160.8,250.4,161.3,255.4z"/>
				<path fill="#FFFFFF" d="M247.1,286.8c-0.5-14.9-1.1-29.8-1.6-44.7c-0.2-4.3,0-7.9,0.4-10.7c0.4-2.9,1.5-5.6,3.1-8.1
					c1.6-2.6,3.7-4.8,6.1-6.6s5.2-3.3,8.2-4.3c3-1,6.3-1.5,9.8-1.6c5.1-0.1,9.9,1,14.3,3.1c4.4,2.1,7.8,5.1,10.3,8.8
					c2.5,3.7,3.7,7.7,3.7,12c0,4-1.1,7.8-3.2,11.4c-2.1,3.7-4.9,6.6-8.5,8.8c-3.6,2.2-7.4,3.4-11.5,3.4c-6.3,0.1-11.3-1-14.9-3.1
					c-0.9-4.7-1.4-7.1-2.3-11.8c1.6,1.7,3.6,3.1,6.2,4.1c2.6,1,5.1,1.5,7.7,1.5c2.8,0,5.3-0.7,7.6-2c2.3-1.3,4.1-3.1,5.4-5.3
					c1.3-2.2,2-4.6,2-7.2c0-2.6-0.7-5.1-2.2-7.3c-1.5-2.2-3.5-4-6.1-5.2c-2.6-1.3-5.4-1.9-8.5-1.8c-5.1,0.1-9.1,1.6-12.1,4.7
					c-3,3-4.4,7.2-4.2,12.4c0.4,16.4,0.9,32.8,1.3,49.2C253.7,286.6,251.5,286.7,247.1,286.8z"/>
				<path fill="#FFFFFF" d="M326.8,286.4c0.5-21.6,1.1-43.2,1.6-64.7c-8.8-0.2-13.2-0.3-22.1-0.4c0-3.7,0-5.5,0.1-9.1
					c18.6,0.3,37.2,0.8,55.8,1.6c-0.2,3.7-0.3,5.5-0.4,9.1c-8.8-0.4-13.1-0.6-21.9-0.9c-0.7,21.6-1.4,43.2-2.2,64.7
					C333.4,286.6,331.2,286.5,326.8,286.4z"/>
				<path fill="#FFFFFF" d="M413.1,291.4c1-10.7,1.5-16,2.4-26.7c-11.9-1.1-23.8-2-35.6-2.8c-0.7,10.7-1,16-1.7,26.7
					c-4.4-0.3-6.5-0.4-10.9-0.7c0.9-15.4,1.7-30.9,2.6-46.3c0.5-8.9,3.6-15.8,9.4-20.6c5.8-4.8,13.2-6.9,22.2-6.2
					c5.9,0.5,11,2,15.3,4.7c4.3,2.7,7.5,6.3,9.6,10.9c2.1,4.6,2.8,9.8,2.2,15.7c-1.5,15.4-3,30.8-4.6,46.2
					C419.6,292,417.4,291.8,413.1,291.4z M400.7,224.1c-5.9-0.5-10.6,0.9-13.9,4.1c-3.4,3.2-5.3,8-5.7,14.5c-0.3,4-0.4,6-0.6,10
					c12,0.8,23.9,1.7,35.9,2.8c0.4-4,0.5-6,0.9-10c0.6-6.5-0.5-11.6-3.4-15.2C411,226.6,406.6,224.5,400.7,224.1z"/>
				<path fill="#FFFFFF" d="M500.6,302.3c-4.3-0.7-6.5-1-10.8-1.7c2.3-15.2,4.6-30.4,6.8-45.6c2.1-9.9-2.2-20.7-13.2-21.9
					c-5.3-0.6-9.7,0.4-13,3.3c-3.2,2.9-5.3,7.7-6.1,14.2c-1.3,10.5-2,15.8-3.3,26.3c-0.5,4.1-2.1,7.4-4.7,10.1
					c-2.6,2.7-6,4.5-10.1,5.6c-4.1,1-8.6,1.3-13.6,0.8c0.4-4,0.6-5.9,1-9.9c4.1,0.4,7.7-0.1,10.9-1.5c3.2-1.4,5.1-4.2,5.6-8.3
					c1.2-9.9,1.7-14.9,2.9-24.8c0.7-5.9,2.5-10.9,5.4-14.9c2.9-4,6.6-6.9,11.2-8.6c4.5-1.7,9.5-2.2,15-1.4c4.1,0.6,7.7,1.7,10.9,3.5
					c3.2,1.8,5.8,4.1,7.9,6.9c2.1,2.8,3.5,6.1,4.3,9.8c0.8,3.7,0.8,7.8,0.1,12.3C505.5,271.7,503,287,500.6,302.3z"/>
			</g>
		</g>
		<g>
			<g>
				<path fill="#FFFFFF" d="M110.8,328.1c-4,0.6-6,1-10,1.6c-1.4,0.3-2.4,0.8-2.9,1.4c-0.5,0.7-0.6,1.6-0.4,2.9
					c1.3,7.7,2,11.5,3.3,19.2c-2,0.3-3,0.5-5.1,0.9c-1.3-7.4-1.9-11.1-3.2-18.5c-0.4-2.2-0.4-3.9-0.1-5.3c0.3-1.4,1-2.5,2.1-3.3
					c1.1-0.8,2.7-1.4,4.7-1.8c4.4-0.7,6.5-1.1,10.9-1.8C110.3,325.3,110.5,326.2,110.8,328.1z"/>
				<path fill="#FFFFFF" d="M120.7,363c-1.5-9.7-2.2-14.6-3.7-24.3c-0.3-2.1-0.5-3.8-0.5-5.2c0-1.4,0.2-2.7,0.7-4.1
					c0.6-1.7,1.4-3.2,2.6-4.5c1.1-1.3,2.5-2.4,4.1-3.3c1.6-0.8,3.3-1.4,5.1-1.7c2.7-0.4,5.3-0.1,7.7,0.8c2.4,0.9,4.3,2.4,5.9,4.5
					c1.5,2,2.5,4.4,2.8,7.2c0.3,2.6,0,5.1-0.9,7.4c-1,2.3-2.4,4.3-4.4,5.8s-4.2,2.5-6.8,2.9c-2.1,0.3-4,0.2-5.8-0.1
					c-1.2-2.4-1.7-3.6-2.9-5.9c2.6,1.3,5.1,1.8,7.5,1.5c1.3-0.2,2.6-0.6,3.6-1.2c1.1-0.6,2-1.4,2.7-2.4c0.7-1,1.2-2.1,1.5-3.3
					c0.3-1.2,0.4-2.5,0.2-4c-0.3-2-0.9-3.6-1.9-5c-1-1.4-2.3-2.4-3.8-3c-1.5-0.6-3.2-0.8-5-0.5c-1.8,0.2-3.3,0.9-4.6,1.9
					c-1.3,1-2.2,2.3-2.8,3.9c-0.6,1.6-0.7,3.3-0.4,5.3c1.6,10.6,2.4,15.9,4,26.5C123.6,362.5,122.6,362.7,120.7,363z"/>
				<path fill="#FFFFFF" d="M173.7,343.3c-0.6-5.5-0.9-8.3-1.5-13.9c-0.2-1.9-0.8-3.6-1.7-5c-0.9-1.4-2.2-2.4-3.6-3.1
					c-1.5-0.6-3.1-0.9-4.9-0.7c-1.8,0.2-3.3,0.8-4.6,1.8c-1.3,1-2.3,2.2-2.9,3.8s-0.8,3.2-0.6,5.1c0.2,1.9,0.8,3.5,1.8,4.9
					c1,1.4,2.2,2.4,3.8,3.1c1.5,0.7,3.2,0.9,4.9,0.7c2.5-0.3,4.7-1.4,6.8-3.3c-0.5,2.6-0.8,3.9-1.3,6.5c-1.4,0.8-3.2,1.3-5.6,1.6
					c-1.8,0.2-3.5,0.1-5.3-0.4s-3.4-1.3-4.8-2.4c-1.5-1.1-2.7-2.5-3.7-4.2c-1-1.7-1.6-3.6-1.9-5.7c-0.3-2.1-0.1-4,0.4-5.9
					c0.5-1.9,1.3-3.5,2.5-4.9c1.1-1.4,2.6-2.6,4.3-3.5c1.7-0.9,3.6-1.5,5.6-1.7c1.8-0.2,3.6-0.1,5.3,0.3c1.7,0.4,3.3,1.1,4.7,2.1
					c1.4,1,2.6,2.2,3.6,3.7c0.8,1.2,1.4,2.5,1.7,3.8c0.3,1.3,0.6,3,0.8,5.1c0.5,4.7,0.7,7,1.2,11.7
					C176.8,343,175.8,343.1,173.7,343.3z"/>
				<path fill="#FFFFFF" d="M206.6,311.6c0.9-0.1,1.8,0.2,2.5,0.7c0.7,0.5,1.2,1.3,1.5,2.4c2.8,9.9,4.1,14.9,6.8,24.9
					c-2.1,0.1-3.2,0.2-5.3,0.4c-2.1-8.7-3.2-13-5.4-21.7c-1.4,7.2-2.1,10.8-3.5,18c-0.6,2.9-1.6,4.4-3.3,4.6c-1,0.1-1.8-0.2-2.5-0.8
					c-0.7-0.6-1.3-1.7-1.8-3.2c-2.5-6.9-3.8-10.3-6.4-17.2c-0.8,8.9-1.1,13.4-1.8,22.3c-2.1,0.2-3.2,0.3-5.3,0.5
					c1-10.3,1.6-15.4,2.7-25.7c0.1-1.1,0.5-2,1.1-2.6c0.6-0.6,1.4-1,2.3-1.1c1.9-0.2,3.3,0.8,4.2,3c2.7,6.9,4.1,10.3,6.7,17.2
					c1.5-7.2,2.3-10.8,3.8-18C203.4,313,204.6,311.7,206.6,311.6z"/>
				<path fill="#FFFFFF" d="M243,309.5c0.9,0,1.8,0.2,2.4,0.8c0.7,0.5,1.1,1.4,1.4,2.4c2.5,10,3.7,15,6.1,25.1
					c-2.1,0.1-3.2,0.1-5.3,0.2c-1.9-8.7-2.8-13.1-4.8-21.8c-1.7,7.2-2.5,10.7-4.1,17.9c-0.7,2.9-1.8,4.4-3.4,4.5
					c-1,0-1.8-0.2-2.4-0.9c-0.6-0.6-1.2-1.7-1.7-3.2c-2.3-7-3.5-10.5-5.9-17.4c-1,8.9-1.5,13.3-2.5,22.2c-2.1,0.1-3.2,0.2-5.3,0.3
					c1.4-10.2,2-15.3,3.5-25.6c0.1-1.1,0.5-2,1.1-2.6c0.6-0.6,1.4-0.9,2.4-1c1.9-0.1,3.3,0.9,4.1,3.1c2.5,6.9,3.7,10.4,6.2,17.4
					c1.7-7.2,2.6-10.7,4.4-17.9C239.8,310.7,241.1,309.5,243,309.5z"/>
				<path fill="#FFFFFF" d="M268.4,308.9c2,0,3.9,0.3,5.7,1.1c1.8,0.7,3.4,1.8,4.7,3.1c1.4,1.3,2.4,2.9,3.2,4.6
					c0.8,1.7,1.2,3.5,1.2,5.4c0,2.6-0.6,5-1.9,7.2c-1.3,2.2-3,4-5.2,5.4c-2.2,1.4-4.6,2.1-7.2,2.1c-2.6,0.1-5-0.5-7.2-1.8
					c-2.2-1.3-4-3-5.4-5.2c-1.4-2.2-2.1-4.6-2.2-7.1c-0.1-2.5,0.5-4.9,1.7-7.1c1.2-2.3,3-4.1,5.2-5.5
					C263.3,309.7,265.8,308.9,268.4,308.9z M268.5,313.6c-2.6,0.1-4.7,1-6.4,2.9c-1.7,1.9-2.5,4.2-2.4,7c0.1,2.7,1,5,2.8,6.8
					c1.8,1.8,3.9,2.7,6.5,2.7c1.6,0,3.2-0.5,4.5-1.4c1.4-0.9,2.5-2.1,3.3-3.6c0.8-1.5,1.2-3.1,1.2-4.9c0-1.8-0.5-3.4-1.3-4.9
					c-0.8-1.5-2-2.6-3.4-3.4C271.7,313.9,270.2,313.5,268.5,313.6z"/>
				<path fill="#FFFFFF" d="M315,350c-2,0-3-0.1-5-0.1c0.2-10.7,0.2-16.1,0.4-26.8c0-1.9-0.3-3.7-1.1-5.2c-0.8-1.5-1.8-2.7-3.3-3.5
					c-1.4-0.8-3-1.2-4.8-1.2c-1.8,0-3.4,0.4-4.8,1.2c-1.4,0.8-2.6,2-3.4,3.4s-1.2,3.2-1.2,5.2c0,1.9,0.4,3.5,1.2,5
					c0.8,1.5,1.9,2.6,3.4,3.4c1.4,0.8,3,1.2,4.8,1.2c2.4,0,4.8-0.8,7.2-2.5c-0.8,2.5-1.3,3.8-2.1,6.3c-1.7,0.6-3.6,0.9-5.7,0.9
					c-2.6,0-4.9-0.7-7.1-1.9c-2.2-1.3-3.9-3-5.1-5.2c-1.3-2.2-1.9-4.6-1.9-7.2c0-2.8,0.6-5.3,1.8-7.5c1.2-2.2,3-4,5.2-5.2
					c2.2-1.2,4.7-1.9,7.5-1.8c1.6,0,3.2,0.3,4.7,0.7c1.5,0.5,2.9,1.2,4.1,2.1s2.3,2,3.1,3.3c0.9-1.2,2-2.3,3.2-3.2
					c1.3-0.9,2.7-1.5,4.2-2c1.5-0.4,3.1-0.6,4.7-0.6c2.8,0.1,5.2,0.8,7.4,2.1c2.2,1.3,3.9,3.1,5,5.4c1.2,2.3,1.7,4.8,1.6,7.5
					c-0.1,2.6-0.8,5-2.2,7.2c-1.3,2.2-3.1,3.8-5.3,5c-2.2,1.2-4.6,1.8-7.1,1.7c-2.1-0.1-4-0.4-5.7-1.1c-0.8-2.5-1.1-3.8-1.9-6.3
					c2.3,1.8,4.7,2.7,7.2,2.7c1.8,0,3.4-0.3,4.9-1.1c1.5-0.8,2.6-1.9,3.5-3.3c0.9-1.4,1.3-3.1,1.4-5c0.1-2-0.3-3.7-1-5.2
					c-0.7-1.5-1.8-2.7-3.2-3.5c-1.4-0.9-3-1.3-4.8-1.4c-1.8,0-3.4,0.3-4.8,1.1c-1.4,0.8-2.6,1.9-3.4,3.4c-0.8,1.5-1.2,3.2-1.3,5.1
					C315.3,333.9,315.2,339.2,315,350z"/>
				<path fill="#FFFFFF" d="M358,310.4c2,0.1,3.9,0.6,5.6,1.5c1.7,0.9,3.2,2,4.5,3.5c1.3,1.4,2.2,3,2.8,4.8c0.6,1.8,0.9,3.6,0.8,5.5
					c-0.2,2.6-1,4.9-2.4,7.1c-1.4,2.1-3.3,3.8-5.5,5c-2.3,1.2-4.7,1.7-7.4,1.6c-2.6-0.1-4.9-0.9-7.1-2.3c-2.1-1.4-3.8-3.3-5-5.6
					c-1.2-2.3-1.7-4.7-1.6-7.2c0.1-2.5,0.9-4.8,2.3-7c1.4-2.2,3.3-3.9,5.6-5.1C352.9,310.8,355.4,310.2,358,310.4z M357.8,315
					c-2.6-0.1-4.8,0.7-6.6,2.4c-1.9,1.8-2.8,4-3,6.8c-0.1,2.7,0.6,5.1,2.3,7c1.7,2,3.7,3,6.2,3.1c1.6,0.1,3.2-0.3,4.6-1
					s2.6-1.9,3.5-3.3c0.9-1.4,1.4-3,1.5-4.8c0.1-1.8-0.2-3.4-0.9-5c-0.7-1.5-1.8-2.8-3.1-3.7C361,315.7,359.4,315.1,357.8,315z"/>
				<path fill="#FFFFFF" d="M377.6,312c2,0.1,3.1,0.2,5.1,0.4c-0.3,4-0.5,6.1-0.8,10.1c5.7,0.4,8.6,0.7,14.2,1.2
					c0.4-4,0.5-6.1,0.9-10.1c2,0.2,3.1,0.3,5.1,0.5c-1,11.1-1.5,16.7-2.6,27.8c-2-0.2-3-0.3-5-0.4c0.5-5.2,0.7-7.8,1.1-13.1
					c-5.7-0.5-8.5-0.7-14.2-1.2c-0.4,5.2-0.6,7.9-1,13.1c-2-0.2-3-0.2-5-0.4C376.4,328.8,376.8,323.2,377.6,312z"/>
				<path fill="#FFFFFF" d="M408.6,314.7c2,0.2,3.1,0.3,5.1,0.5c-0.4,4-0.6,6-1,10.1c5.7,0.6,8.5,0.9,14.2,1.5c0.5-4,0.7-6,1.2-10.1
					c2,0.2,3.1,0.4,5.1,0.6c-1.3,11.1-2,16.7-3.3,27.8c-2-0.2-3-0.4-5-0.6c0.6-5.2,0.9-7.8,1.5-13c-5.7-0.6-8.5-1-14.2-1.5
					c-0.5,5.2-0.8,7.8-1.3,13.1c-2-0.2-3-0.3-5-0.5C407,331.4,407.5,325.8,408.6,314.7z"/>
				<path fill="#FFFFFF" d="M452.8,319.4c2,0.3,3.8,0.9,5.5,1.9c1.7,1,3.1,2.3,4.2,3.8c1.1,1.5,2,3.2,2.5,5c0.5,1.8,0.6,3.7,0.3,5.6
					c-0.4,2.6-1.4,4.8-3,6.8c-1.6,2-3.6,3.5-5.9,4.5c-2.4,1-4.9,1.3-7.5,1c-2.6-0.3-4.8-1.3-6.9-2.9c-2-1.6-3.5-3.6-4.5-6
					c-1-2.4-1.4-4.8-1-7.3c0.3-2.5,1.2-4.7,2.8-6.8c1.6-2,3.6-3.6,6-4.6C447.7,319.4,450.2,319,452.8,319.4z M452.2,324
					c-2.5-0.3-4.8,0.3-6.8,1.9c-2,1.6-3.2,3.8-3.5,6.5c-0.3,2.7,0.2,5.1,1.7,7.2c1.5,2.1,3.5,3.3,6,3.6c1.6,0.2,3.2,0,4.7-0.7
					c1.5-0.7,2.8-1.7,3.8-3c1-1.4,1.7-2.9,1.9-4.7c0.3-1.8,0.1-3.4-0.5-5c-0.6-1.6-1.6-2.9-2.8-3.9
					C455.3,324.9,453.8,324.2,452.2,324z"/>
				<path fill="#FFFFFF" d="M496.7,326.6c-1.6,9.2-3.2,18.4-4.8,27.6c-2-0.3-3-0.5-4.9-0.9c0.1-0.9,0.2-1.3,0.4-2.2
					c-1.8,1.5-4.3,2-7.4,1.5c-3.8-0.6-6.6-2.2-8.3-4.7c-1.7-2.5-2.3-5.7-1.7-9.5c1-6.4,1.5-9.5,2.4-15.9c2,0.3,3,0.5,5.1,0.8
					c-1,6.4-1.5,9.6-2.5,16c-0.3,2.1,0,4,1.1,5.6c1.1,1.6,2.7,2.6,4.7,2.9c2.1,0.3,3.9-0.1,5.4-1.3c1.5-1.2,2.4-2.7,2.7-4.7
					c1.1-6.5,1.7-9.7,2.8-16.2C493.6,326,494.6,326.2,496.7,326.6z M491,319.1c-0.2,1.2-0.3,1.8-0.5,3c-4.3-0.7-6.4-1.1-10.7-1.8
					c0.2-1.2,0.3-1.8,0.5-3C484.5,318,486.7,318.3,491,319.1z"/>
			</g>
		</g>
		<g>
			<g>
				<path fill="#FFFFFF" d="M119.7,381.1c6.4-1,11.8,0.7,16.2,5c3.2-5.4,7.9-8.5,14.2-9.3c5.9-0.8,10.9,0.5,15,3.8
					c4,3.3,6.4,8.2,7.1,14.7c1.2,10.9,1.8,16.4,3,27.4c-3.4,0.4-5,0.6-8.4,1c-1.1-9.6-2.3-19.3-3.4-28.9c-0.4-3.4-1.7-5.9-4-7.7
					c-2.3-1.8-5-2.5-8.2-2.1c-3.1,0.4-5.6,1.8-7.3,4.1c-1.7,2.3-2.3,5.1-1.9,8.5c1.3,9.6,2.7,19.2,4,28.8c-3.4,0.5-5,0.7-8.4,1.2
					c-1.4-9.6-2.8-19.2-4.2-28.8c-0.5-3.3-1.9-5.9-4.2-7.6c-2.3-1.7-5.1-2.3-8.2-1.8c-3.2,0.5-5.6,1.9-7.3,4.3
					c-1.7,2.3-2.2,5.2-1.7,8.5c1.6,9.6,3.2,19.1,4.8,28.7c-3.3,0.6-5,0.8-8.3,1.4c-1.9-10.9-2.8-16.3-4.7-27.1
					c-1.1-6.5-0.3-11.9,2.7-16.1C109.4,384.6,113.9,382,119.7,381.1z"/>
				<path fill="#FFFFFF" d="M181,397.9c-0.4-4.2,0.3-8.3,2.1-12.3c1.9-4,4.6-7.3,8.3-10c3.7-2.6,7.8-4.1,12.3-4.5
					c3.4-0.3,6.8,0.1,9.9,1.2c3.2,1.1,6,2.7,8.4,4.8c2.4,2.1,4.4,4.6,5.9,7.5c1.5,2.9,2.3,5.9,2.5,9.1c0.1,1.3,0,2.5-0.1,3.7
					c-13.2,0.8-26.3,1.8-39.5,3c1.2,3.7,3.2,6.7,6.2,8.8c3,2.1,6.3,3.1,9.9,2.8c5.2-0.4,9.3-3.1,12.4-8.2c2.7,2.2,4.1,3.3,6.7,5.4
					c-1.7,2.7-4.2,5.2-7.4,7.3c-3.2,2.1-6.9,3.3-11.1,3.7c-4.4,0.4-8.5-0.4-12.4-2.4c-3.9-1.9-7.2-4.7-9.7-8.2
					C183,406.2,181.5,402.2,181,397.9z M204.3,379.1c-3.7,0.3-6.9,1.8-9.6,4.4c-2.6,2.6-4.2,5.9-4.6,9.7c10.2-1,20.3-1.8,30.5-2.4
					c-0.7-2.5-1.8-4.6-3.4-6.5c-1.6-1.8-3.5-3.2-5.8-4.1C209.2,379.3,206.8,378.9,204.3,379.1z"/>
				<path fill="#FFFFFF" d="M245.9,378.5c0.1,3.2,1.4,5.6,3.8,7.3c2.4,1.7,5.2,2.5,8.5,2.4c2-0.1,4-0.5,5.7-1.4
					c1.8-0.8,3.2-2,4.3-3.6c1.1-1.6,1.6-3.4,1.5-5.5c-0.1-3.7-0.1-5.5-0.2-9.2c3.5-0.1,5.3-0.1,8.8-0.2c0.1,4,0.1,6,0.1,9.9
					c0,3.5-0.8,6.6-2.5,9.1c-1.7,2.6-3.7,4.2-6,4.9c1.5,0.4,2.9,1.2,4.2,2.4c1.3,1.3,2.4,2.9,3.3,4.9c0.8,2,1.3,4.2,1.3,6.5
					c0.1,4,0.1,6,0.1,10c-3.4,0-5.1,0.1-8.4,0.1c-0.1-3.7-0.1-5.5-0.2-9.2c0-2.1-0.6-3.9-1.7-5.4c-1.1-1.5-2.6-2.6-4.4-3.4
					c-1.8-0.7-3.7-1.1-5.8-1c-3.2,0.1-6,1.1-8.2,3c-2.2,1.9-3.3,4.4-3.1,7.6c0.2,3.7,0.2,5.5,0.4,9.2c-3.4,0.1-5.1,0.2-8.4,0.4
					c-0.2-4-0.3-6-0.5-9.9c-0.1-2.4,0.2-4.6,0.9-6.6c0.7-2,1.7-3.7,3-5.1c1.3-1.4,2.6-2.3,4-2.7c-2.3-0.5-4.4-2-6.3-4.5
					c-1.9-2.4-2.9-5.4-3.1-8.9c-0.2-4-0.3-6-0.5-9.9c3.5-0.2,5.3-0.3,8.8-0.4C245.6,373,245.7,374.8,245.9,378.5z"/>
				<path fill="#FFFFFF" d="M289.2,368.3c3.5,0,5.3,0,8.8,0c0,6.9,0,10.4-0.1,17.3c9.8,0,14.7,0.1,24.4,0.4
					c0.2-6.9,0.3-10.4,0.4-17.3c3.5,0.1,5.3,0.1,8.8,0.3c-0.5,15.9-1.1,31.8-1.6,47.7c-3.4-0.1-5.1-0.2-8.4-0.3
					c0.2-9,0.3-13.4,0.6-22.4c-9.7-0.3-14.6-0.3-24.3-0.4c0,9-0.1,13.5-0.1,22.4c-3.4,0-5.1,0-8.4,0
					C289.3,400.1,289.2,384.2,289.2,368.3z"/>
				<path fill="#FFFFFF" d="M385.1,372c-1.3,15.9-2.6,31.8-3.9,47.7c-3.4-0.3-5.1-0.4-8.4-0.7c0.1-1.5,0.2-2.3,0.3-3.8
					c-2.8,2.8-6.9,4.1-12.2,3.7c-6.5-0.4-11.4-2.5-14.7-6.5c-3.3-3.9-4.9-9.2-4.6-15.7c0.5-11,0.7-16.5,1.2-27.4
					c3.5,0.2,5.3,0.2,8.8,0.4c-0.6,11-0.9,16.6-1.4,27.6c-0.2,3.7,0.8,6.8,2.9,9.3c2.1,2.5,4.9,3.9,8.4,4.1c2.4,0.2,4.6-0.3,6.5-1.3
					c1.9-1,3.4-2.4,4.5-4.3c1.1-1.8,1.7-3.8,1.9-5.9c0.7-9.4,1.4-18.7,2.1-28.1C379.8,371.6,381.6,371.7,385.1,372z"/>
				<path fill="#FFFFFF" d="M405.8,373.9c-0.8,7.6-1.1,11.4-1.9,19c7.6-5.7,15.3-11.3,23.1-16.7c4.4,0.5,6.5,0.8,10.9,1.4
					c-8.3,5.7-12.4,8.6-20.6,14.5c2.9,0.3,5.5,1.4,7.7,3.3c2.3,1.8,3.9,4.1,5,6.6c1.1,2.6,1.4,5.1,1.1,7.6c-0.8,6-1.1,9-1.9,15
					c-3.4-0.4-5.2-0.6-8.6-1.1c0.7-5.5,1-8.2,1.6-13.7c0.4-3.1-0.4-5.7-2.4-7.7c-2-2.1-4.4-3.3-7.4-3.6c-1.9-0.2-3.9,0.2-5.8,1.2
					c-1.9,1-3.3,2.7-4,5c-0.7,6.7-1,10-1.7,16.7c-3.4-0.3-5.2-0.5-8.6-0.8c1.5-15.8,2.9-31.7,4.4-47.5
					C400.4,373.4,402.2,373.5,405.8,373.9z"/>
				<path fill="#FFFFFF" d="M487.3,385.1c-2.7,15.7-5.5,31.4-8.2,47.1c-3.3-0.6-5-0.9-8.3-1.4c0.2-1.5,0.4-2.2,0.6-3.7
					c-3.1,2.6-7.3,3.4-12.6,2.6c-6.4-1-11.1-3.6-14.1-7.8c-3-4.2-4.1-9.6-3.2-16.1c1.5-10.9,2.2-16.3,3.7-27.2
					c3.5,0.5,5.3,0.7,8.7,1.2c-1.6,10.9-2.4,16.4-3.9,27.4c-0.5,3.7,0.2,6.8,2.1,9.6c1.9,2.7,4.6,4.3,8,4.9c2.4,0.4,4.6,0.1,6.6-0.7
					c2-0.9,3.6-2.1,4.8-3.8c1.2-1.7,2.1-3.6,2.4-5.7c1.5-9.2,3.1-18.5,4.6-27.7C482.1,384.2,483.8,384.5,487.3,385.1z"/>
			</g>
		</g>
		<circle fill="none" stroke="#FFFFFF" stroke-width="25" stroke-miterlimit="10" cx="293.7" cy="560.7" r="98.5"/>
		<path fill="#23191A" d="M253,674.2L253,674.2c-4.8,4.6-12.4,4.4-17-0.4L183.7,619c-4.6-4.8-4.4-12.4,0.4-17l0,0
			c4.8-4.6,12.4-4.4,17,0.4l52.3,54.8C258,662,257.8,669.6,253,674.2z"/>
		<path fill="#FFFFFF" d="M275.9,494.5c-1.9-3-17.9,7-17.9,7s-16.3,9.5-14.5,12.7c1.8,3.1,23.3,36.1,38.5,26.8
			C296.6,532.1,277.8,497.5,275.9,494.5z"/>
		<path fill="#FFFFFF" d="M283.4,663.2L265,643.6c-0.8-0.9-2.2-0.9-3.1-0.1l-13.7,12.9c-0.2-0.2-0.4-0.4-0.6-0.6
			c-1.6-1.7-3.5-2.7-4.9-3c-4.1-5.3-11.2-13.5-19.6-22.2c-8.4-8.8-16.2-16.2-21.4-20.6c-0.3-1.5-1.2-3.3-2.8-4.9
			c-0.4-0.4-0.9-0.8-1.3-1.2l14.1-13.3c0.9-0.8,0.9-2.2,0.1-3.1l-18.5-19.6c-0.8-0.9-2.2-0.9-3.1-0.1l-18.5,17.5
			c-0.9,0.8-0.9,2.2-0.1,3.1L190,608c0.7,0.8,2,0.9,2.8,0.3c0.4,0.5,0.8,1,1.2,1.5c1.8,1.8,3.8,2.9,5.4,3
			c3.4,4.4,8.8,10.6,15.1,17.4c-0.1,0.1-0.3,0.2-0.4,0.3l-5.8,5.5c-0.8-0.4-1.8-0.3-2.4,0.3l-6,5.6c-0.9,0.8-0.9,2.2-0.1,3l2.6,2.7
			c-0.3,0.2-0.5,0.5-0.8,0.7c-3.9,3.7-6.5,7.3-5.7,8.1s4.5-1.6,8.4-5.3c0.3-0.2,0.5-0.5,0.8-0.7l2.3,2.4c0.8,0.9,2.2,0.9,3,0.1
			l6-5.6c0.9-0.8,0.9-2.2,0.1-3l0,0l5.7-5.4c0.1-0.1,0.2-0.3,0.3-0.4c6.9,7,13.1,13,17.5,16.7c0.1,1.5,1.1,3.6,2.9,5.4
			c0.2,0.2,0.4,0.4,0.5,0.5c-0.9,0.8-0.9,2.2-0.1,3.1l18.5,19.6c0.8,0.9,2.2,0.9,3.1,0.1l18.5-17.5
			C284.2,665.4,284.2,664,283.4,663.2z"/>
		<path fill="#FFFFFF" d="M362.5,556.4c3.4-1.2-3-19-3-19s-5.8-18-9.2-16.9c-3.4,1.1-40.2,15-34.5,31.8
			C321.3,568.7,359.1,557.7,362.5,556.4z"/>
		<path fill="#FFFFFF" d="M337.2,614.1c3,2,13.6-13.7,13.6-13.7s11.1-15.3,8.2-17.4c-2.9-2.1-35.8-23.6-46-9
			C303,588.1,334.2,612.1,337.2,614.1z"/>
		<path fill="#FFFFFF" d="M279.9,628.3c0.4,3.6,19.2,1.6,19.2,1.6s18.8-1.3,18.6-4.9c-0.2-3.6-4.9-42.6-22.6-41.1
			C277.9,585.4,279.5,624.7,279.9,628.3z"/>
		<path fill="#FFFFFF" d="M233.2,592.2c-2.6,2.5,10.4,16.2,10.4,16.2s12.6,14.1,15.3,11.7s30.8-30,18.7-43
			C265.9,564.4,235.8,589.7,233.2,592.2z"/>
		<path fill="#FFFFFF" d="M231.5,532.1c-3.6-0.5-6.1,18.3-6.1,18.3s-3.2,18.6,0.4,19.3c3.5,0.6,42.6,5.3,45.3-12.2
			C273.7,540.3,235.1,532.5,231.5,532.1z"/>
		<path fill="#FFFFFF" d="M296.8,491.8c1.2-3.4,19,3,19,3s18,5.8,16.9,9.2c-1.1,3.4-14.9,40.3-31.7,34.6
			C284.8,533,295.6,495.1,296.8,491.8z"/>
		<circle fill="#FFFFFF" cx="294.4" cy="560.8" r="15.5"/>
	</g>
</g>
</svg>
