<?xml version="1.0" encoding="utf-8"?>
<!-- Generator: Adobe Illustrator 22.1.0, SVG Export Plug-In . SVG Version: 6.00 Build 0)  -->
<svg version="1.1" id="Слой_1" xmlns="http://www.w3.org/2000/svg" xmlns:xlink="http://www.w3.org/1999/xlink" x="0px" y="0px"
	 viewBox="0 0 595.3 841.9" style="enable-background:new 0 0 595.3 841.9;" xml:space="preserve">
<style type="text/css">
	.st0{fill:#FFFFFF;}
	.st1{font-family:'ArialMT';}
	.st2{font-size:72px;}
	.st3{fill:none;stroke:#FFFFFF;stroke-width:26;stroke-miterlimit:10;}
	.st4{fill:#25181A;}
</style>
<g id="Слой_2_1_">
</g>
<g id="Слой_1_1_">
	<g>
		<text transform="matrix(1 0 0 1 132.8757 271)" class="st0 st1 st2"> </text>
		<g>
			<g>
				<path class="st0" d="M95.7,300.6c-4.3,0.6-6.5,1-10.8,1.7c-2.4-15.3-4.8-30.6-7.3-45.9c-1.4-8.8,0.2-16.1,4.9-22
					s11.5-9.5,20.4-10.7c5.8-0.8,11.2-0.3,15.9,1.4c4.8,1.7,8.7,4.6,11.7,8.6c3,4,4.8,9,5.5,14.8c1.8,15.4,3.5,30.8,5.3,46.2
					c-4.3,0.5-6.5,0.8-10.8,1.3c-1.9-15.2-3.7-30.4-5.6-45.6c-0.8-6.5-3-11.2-6.5-14.2c-3.6-2.9-8.3-4-14.1-3.2
					c-5.9,0.8-10.1,3.1-12.8,6.9c-2.7,3.8-3.5,8.9-2.5,15.4C91.1,270.3,93.4,285.5,95.7,300.6z"/>
				<path class="st0" d="M147.8,256.7c-0.7-6.6,0.6-13.1,3.9-19.3c3.4-6.3,8.2-11.5,14.6-15.6c6.4-4.1,13.5-6.5,21.2-7
					c6-0.4,11.7,0.2,17.1,1.8c5.4,1.7,10.3,4.2,14.4,7.5c4.2,3.4,7.5,7.3,9.9,11.8s3.7,9.3,3.9,14.4c0.2,5.1-0.7,10-2.6,14.7
					s-4.7,8.9-8.4,12.7c-3.6,3.8-7.9,6.8-12.9,9.2c-4.9,2.4-10.2,3.7-15.9,4.2c-5.5,0.4-10.8-0.2-16-1.7s-9.9-3.9-14.2-7.1
					s-7.7-7-10.4-11.3C150,266.5,148.3,261.8,147.8,256.7z M159.2,255.4c0.4,3.7,1.5,7.2,3.5,10.5c1.9,3.3,4.5,6.2,7.6,8.7
					s6.6,4.3,10.4,5.6c3.9,1.3,7.8,1.7,11.9,1.4c4.2-0.3,8.1-1.4,11.8-3.2s6.8-4.2,9.4-7.1c2.6-2.9,4.6-6.1,6-9.7s2-7.2,1.8-11
					c-0.2-3.7-1.2-7.3-2.9-10.7c-1.8-3.4-4.2-6.4-7.3-9s-6.6-4.5-10.5-5.8c-4-1.3-8.2-1.8-12.6-1.4c-5.8,0.4-11,2.2-15.6,5.3
					s-8.2,7-10.6,11.7C159.6,245.6,158.7,250.4,159.2,255.4z"/>
				<path class="st0" d="M245,286.8c-0.5-14.9-1.1-29.8-1.6-44.7c-0.2-4.3,0-7.9,0.4-10.7c0.4-2.9,1.5-5.6,3.1-8.1
					c1.6-2.6,3.7-4.8,6.1-6.6c2.4-1.8,5.2-3.3,8.2-4.3s6.3-1.5,9.8-1.6c5.1-0.1,9.9,1,14.3,3.1s7.8,5.1,10.3,8.8s3.7,7.7,3.7,12
					c0,4-1.1,7.8-3.2,11.4c-2.1,3.7-4.9,6.6-8.5,8.8s-7.4,3.4-11.5,3.4c-6.3,0.1-11.3-1-14.9-3.1c-0.9-4.7-1.4-7.1-2.3-11.8
					c1.6,1.7,3.6,3.1,6.2,4.1s5.1,1.5,7.7,1.5c2.8,0,5.3-0.7,7.6-2c2.3-1.3,4.1-3.1,5.4-5.3s2-4.6,2-7.2c0-2.6-0.7-5.1-2.2-7.3
					s-3.5-4-6.1-5.2c-2.6-1.3-5.4-1.9-8.5-1.8c-5.1,0.1-9.1,1.6-12.1,4.7c-3,3-4.4,7.2-4.2,12.4c0.4,16.4,0.9,32.8,1.3,49.2
					C251.6,286.6,249.4,286.7,245,286.8z"/>
				<path class="st0" d="M324.7,286.4c0.5-21.6,1.1-43.2,1.6-64.7c-8.8-0.2-13.2-0.3-22.1-0.4c0-3.7,0-5.5,0.1-9.1
					c18.6,0.3,37.2,0.8,55.8,1.6c-0.2,3.7-0.3,5.5-0.4,9.1c-8.8-0.4-13.1-0.6-21.9-0.9c-0.7,21.6-1.4,43.2-2.2,64.7
					C331.3,286.6,329.1,286.5,324.7,286.4z"/>
				<path class="st0" d="M411,291.4c1-10.7,1.5-16,2.4-26.7c-11.9-1.1-23.8-2-35.6-2.8c-0.7,10.7-1,16-1.7,26.7
					c-4.4-0.3-6.5-0.4-10.9-0.7c0.9-15.4,1.7-30.9,2.6-46.3c0.5-8.9,3.6-15.8,9.4-20.6s13.2-6.9,22.2-6.2c5.9,0.5,11,2,15.3,4.7
					s7.5,6.3,9.6,10.9c2.1,4.6,2.8,9.8,2.2,15.7c-1.5,15.4-3,30.8-4.6,46.2C417.5,292,415.3,291.8,411,291.4z M398.6,224.1
					c-5.9-0.5-10.6,0.9-13.9,4.1c-3.4,3.2-5.3,8-5.7,14.5c-0.3,4-0.4,6-0.6,10c12,0.8,23.9,1.7,35.9,2.8c0.4-4,0.5-6,0.9-10
					c0.6-6.5-0.5-11.6-3.4-15.2C408.9,226.6,404.5,224.5,398.6,224.1z"/>
				<path class="st0" d="M498.5,302.3c-4.3-0.7-6.5-1-10.8-1.7c2.3-15.2,4.6-30.4,6.8-45.6c2.1-9.9-2.2-20.7-13.2-21.9
					c-5.3-0.6-9.7,0.4-13,3.3c-3.2,2.9-5.3,7.7-6.1,14.2c-1.3,10.5-2,15.8-3.3,26.3c-0.5,4.1-2.1,7.4-4.7,10.1s-6,4.5-10.1,5.6
					c-4.1,1-8.6,1.3-13.6,0.8c0.4-4,0.6-5.9,1-9.9c4.1,0.4,7.7-0.1,10.9-1.5c3.2-1.4,5.1-4.2,5.6-8.3c1.2-9.9,1.7-14.9,2.9-24.8
					c0.7-5.9,2.5-10.9,5.4-14.9s6.6-6.9,11.2-8.6c4.5-1.7,9.5-2.2,15-1.4c4.1,0.6,7.7,1.7,10.9,3.5c3.2,1.8,5.8,4.1,7.9,6.9
					c2.1,2.8,3.5,6.1,4.3,9.8s0.8,7.8,0.1,12.3C503.4,271.7,500.9,287,498.5,302.3z"/>
			</g>
		</g>
		<g>
			<g>
				<path class="st0" d="M108.7,328.1c-4,0.6-6,1-10,1.6c-1.4,0.3-2.4,0.8-2.9,1.4c-0.5,0.7-0.6,1.6-0.4,2.9
					c1.3,7.7,2,11.5,3.3,19.2c-2,0.3-3,0.5-5.1,0.9c-1.3-7.4-1.9-11.1-3.2-18.5c-0.4-2.2-0.4-3.9-0.1-5.3s1-2.5,2.1-3.3
					s2.7-1.4,4.7-1.8c4.4-0.7,6.5-1.1,10.9-1.8C108.2,325.3,108.4,326.2,108.7,328.1z"/>
				<path class="st0" d="M118.6,363c-1.5-9.7-2.2-14.6-3.7-24.3c-0.3-2.1-0.5-3.8-0.5-5.2c0-1.4,0.2-2.7,0.7-4.1
					c0.6-1.7,1.4-3.2,2.6-4.5c1.1-1.3,2.5-2.4,4.1-3.3c1.6-0.8,3.3-1.4,5.1-1.7c2.7-0.4,5.3-0.1,7.7,0.8s4.3,2.4,5.9,4.5
					c1.5,2,2.5,4.4,2.8,7.2c0.3,2.6,0,5.1-0.9,7.4c-1,2.3-2.4,4.3-4.4,5.8s-4.2,2.5-6.8,2.9c-2.1,0.3-4,0.2-5.8-0.1
					c-1.2-2.4-1.7-3.6-2.9-5.9c2.6,1.3,5.1,1.8,7.5,1.5c1.3-0.2,2.6-0.6,3.6-1.2c1.1-0.6,2-1.4,2.7-2.4s1.2-2.1,1.5-3.3
					c0.3-1.2,0.4-2.5,0.2-4c-0.3-2-0.9-3.6-1.9-5s-2.3-2.4-3.8-3s-3.2-0.8-5-0.5c-1.8,0.2-3.3,0.9-4.6,1.9c-1.3,1-2.2,2.3-2.8,3.9
					c-0.6,1.6-0.7,3.3-0.4,5.3c1.6,10.6,2.4,15.9,4,26.5C121.5,362.5,120.5,362.7,118.6,363z"/>
				<path class="st0" d="M171.6,343.3c-0.6-5.5-0.9-8.3-1.5-13.9c-0.2-1.9-0.8-3.6-1.7-5s-2.2-2.4-3.6-3.1c-1.5-0.6-3.1-0.9-4.9-0.7
					c-1.8,0.2-3.3,0.8-4.6,1.8s-2.3,2.2-2.9,3.8s-0.8,3.2-0.6,5.1s0.8,3.5,1.8,4.9s2.2,2.4,3.8,3.1c1.5,0.7,3.2,0.9,4.9,0.7
					c2.5-0.3,4.7-1.4,6.8-3.3c-0.5,2.6-0.8,3.9-1.3,6.5c-1.4,0.8-3.2,1.3-5.6,1.6c-1.8,0.2-3.5,0.1-5.3-0.4s-3.4-1.3-4.8-2.4
					c-1.5-1.1-2.7-2.5-3.7-4.2s-1.6-3.6-1.9-5.7c-0.3-2.1-0.1-4,0.4-5.9s1.3-3.5,2.5-4.9c1.1-1.4,2.6-2.6,4.3-3.5s3.6-1.5,5.6-1.7
					c1.8-0.2,3.6-0.1,5.3,0.3s3.3,1.1,4.7,2.1s2.6,2.2,3.6,3.7c0.8,1.2,1.4,2.5,1.7,3.8s0.6,3,0.8,5.1c0.5,4.7,0.7,7,1.2,11.7
					C174.7,343,173.7,343.1,171.6,343.3z"/>
				<path class="st0" d="M204.5,311.6c0.9-0.1,1.8,0.2,2.5,0.7s1.2,1.3,1.5,2.4c2.8,9.9,4.1,14.9,6.8,24.9c-2.1,0.1-3.2,0.2-5.3,0.4
					c-2.1-8.7-3.2-13-5.4-21.7c-1.4,7.2-2.1,10.8-3.5,18c-0.6,2.9-1.6,4.4-3.3,4.6c-1,0.1-1.8-0.2-2.5-0.8c-0.7-0.6-1.3-1.7-1.8-3.2
					c-2.5-6.9-3.8-10.3-6.4-17.2c-0.8,8.9-1.1,13.4-1.8,22.3c-2.1,0.2-3.2,0.3-5.3,0.5c1-10.3,1.6-15.4,2.7-25.7
					c0.1-1.1,0.5-2,1.1-2.6s1.4-1,2.3-1.1c1.9-0.2,3.3,0.8,4.2,3c2.7,6.9,4.1,10.3,6.7,17.2c1.5-7.2,2.3-10.8,3.8-18
					C201.3,313,202.5,311.7,204.5,311.6z"/>
				<path class="st0" d="M240.9,309.5c0.9,0,1.8,0.2,2.4,0.8c0.7,0.5,1.1,1.4,1.4,2.4c2.5,10,3.7,15,6.1,25.1
					c-2.1,0.1-3.2,0.1-5.3,0.2c-1.9-8.7-2.8-13.1-4.8-21.8c-1.7,7.2-2.5,10.7-4.1,17.9c-0.7,2.9-1.8,4.4-3.4,4.5
					c-1,0-1.8-0.2-2.4-0.9c-0.6-0.6-1.2-1.7-1.7-3.2c-2.3-7-3.5-10.5-5.9-17.4c-1,8.9-1.5,13.3-2.5,22.2c-2.1,0.1-3.2,0.2-5.3,0.3
					c1.4-10.2,2-15.3,3.5-25.6c0.1-1.1,0.5-2,1.1-2.6s1.4-0.9,2.4-1c1.9-0.1,3.3,0.9,4.1,3.1c2.5,6.9,3.7,10.4,6.2,17.4
					c1.7-7.2,2.6-10.7,4.4-17.9C237.7,310.7,239,309.5,240.9,309.5z"/>
				<path class="st0" d="M266.3,308.9c2,0,3.9,0.3,5.7,1.1c1.8,0.7,3.4,1.8,4.7,3.1c1.4,1.3,2.4,2.9,3.2,4.6
					c0.8,1.7,1.2,3.5,1.2,5.4c0,2.6-0.6,5-1.9,7.2s-3,4-5.2,5.4s-4.6,2.1-7.2,2.1c-2.6,0.1-5-0.5-7.2-1.8s-4-3-5.4-5.2
					s-2.1-4.6-2.2-7.1c-0.1-2.5,0.5-4.9,1.7-7.1c1.2-2.3,3-4.1,5.2-5.5C261.2,309.7,263.7,308.9,266.3,308.9z M266.4,313.6
					c-2.6,0.1-4.7,1-6.4,2.9c-1.7,1.9-2.5,4.2-2.4,7c0.1,2.7,1,5,2.8,6.8s3.9,2.7,6.5,2.7c1.6,0,3.2-0.5,4.5-1.4
					c1.4-0.9,2.5-2.1,3.3-3.6s1.2-3.1,1.2-4.9s-0.5-3.4-1.3-4.9s-2-2.6-3.4-3.4C269.6,313.9,268.1,313.5,266.4,313.6z"/>
				<path class="st0" d="M312.9,350c-2,0-3-0.1-5-0.1c0.2-10.7,0.2-16.1,0.4-26.8c0-1.9-0.3-3.7-1.1-5.2c-0.8-1.5-1.8-2.7-3.3-3.5
					c-1.4-0.8-3-1.2-4.8-1.2s-3.4,0.4-4.8,1.2c-1.4,0.8-2.6,2-3.4,3.4s-1.2,3.2-1.2,5.2c0,1.9,0.4,3.5,1.2,5
					c0.8,1.5,1.9,2.6,3.4,3.4c1.4,0.8,3,1.2,4.8,1.2c2.4,0,4.8-0.8,7.2-2.5c-0.8,2.5-1.3,3.8-2.1,6.3c-1.7,0.6-3.6,0.9-5.7,0.9
					c-2.6,0-4.9-0.7-7.1-1.9c-2.2-1.3-3.9-3-5.1-5.2c-1.3-2.2-1.9-4.6-1.9-7.2c0-2.8,0.6-5.3,1.8-7.5c1.2-2.2,3-4,5.2-5.2
					s4.7-1.9,7.5-1.8c1.6,0,3.2,0.3,4.7,0.7c1.5,0.5,2.9,1.2,4.1,2.1s2.3,2,3.1,3.3c0.9-1.2,2-2.3,3.2-3.2c1.3-0.9,2.7-1.5,4.2-2
					c1.5-0.4,3.1-0.6,4.7-0.6c2.8,0.1,5.2,0.8,7.4,2.1c2.2,1.3,3.9,3.1,5,5.4c1.2,2.3,1.7,4.8,1.6,7.5c-0.1,2.6-0.8,5-2.2,7.2
					c-1.3,2.2-3.1,3.8-5.3,5c-2.2,1.2-4.6,1.8-7.1,1.7c-2.1-0.1-4-0.4-5.7-1.1c-0.8-2.5-1.1-3.8-1.9-6.3c2.3,1.8,4.7,2.7,7.2,2.7
					c1.8,0,3.4-0.3,4.9-1.1c1.5-0.8,2.6-1.9,3.5-3.3s1.3-3.1,1.4-5c0.1-2-0.3-3.7-1-5.2s-1.8-2.7-3.2-3.5c-1.4-0.9-3-1.3-4.8-1.4
					c-1.8,0-3.4,0.3-4.8,1.1c-1.4,0.8-2.6,1.9-3.4,3.4s-1.2,3.2-1.3,5.1C313.2,333.9,313.1,339.2,312.9,350z"/>
				<path class="st0" d="M355.9,310.4c2,0.1,3.9,0.6,5.6,1.5s3.2,2,4.5,3.5c1.3,1.4,2.2,3,2.8,4.8c0.6,1.8,0.9,3.6,0.8,5.5
					c-0.2,2.6-1,4.9-2.4,7.1c-1.4,2.1-3.3,3.8-5.5,5c-2.3,1.2-4.7,1.7-7.4,1.6c-2.6-0.1-4.9-0.9-7.1-2.3c-2.1-1.4-3.8-3.3-5-5.6
					c-1.2-2.3-1.7-4.7-1.6-7.2s0.9-4.8,2.3-7s3.3-3.9,5.6-5.1C350.8,310.8,353.3,310.2,355.9,310.4z M355.7,315
					c-2.6-0.1-4.8,0.7-6.6,2.4c-1.9,1.8-2.8,4-3,6.8c-0.1,2.7,0.6,5.1,2.3,7c1.7,2,3.7,3,6.2,3.1c1.6,0.1,3.2-0.3,4.6-1
					s2.6-1.9,3.5-3.3s1.4-3,1.5-4.8s-0.2-3.4-0.9-5c-0.7-1.5-1.8-2.8-3.1-3.7C358.9,315.7,357.3,315.1,355.7,315z"/>
				<path class="st0" d="M375.5,312c2,0.1,3.1,0.2,5.1,0.4c-0.3,4-0.5,6.1-0.8,10.1c5.7,0.4,8.6,0.7,14.2,1.2
					c0.4-4,0.5-6.1,0.9-10.1c2,0.2,3.1,0.3,5.1,0.5c-1,11.1-1.5,16.7-2.6,27.8c-2-0.2-3-0.3-5-0.4c0.5-5.2,0.7-7.8,1.1-13.1
					c-5.7-0.5-8.5-0.7-14.2-1.2c-0.4,5.2-0.6,7.9-1,13.1c-2-0.2-3-0.2-5-0.4C374.3,328.8,374.7,323.2,375.5,312z"/>
				<path class="st0" d="M406.5,314.7c2,0.2,3.1,0.3,5.1,0.5c-0.4,4-0.6,6-1,10.1c5.7,0.6,8.5,0.9,14.2,1.5c0.5-4,0.7-6,1.2-10.1
					c2,0.2,3.1,0.4,5.1,0.6c-1.3,11.1-2,16.7-3.3,27.8c-2-0.2-3-0.4-5-0.6c0.6-5.2,0.9-7.8,1.5-13c-5.7-0.6-8.5-1-14.2-1.5
					c-0.5,5.2-0.8,7.8-1.3,13.1c-2-0.2-3-0.3-5-0.5C404.9,331.4,405.4,325.8,406.5,314.7z"/>
				<path class="st0" d="M450.7,319.4c2,0.3,3.8,0.9,5.5,1.9s3.1,2.3,4.2,3.8s2,3.2,2.5,5s0.6,3.7,0.3,5.6c-0.4,2.6-1.4,4.8-3,6.8
					s-3.6,3.5-5.9,4.5c-2.4,1-4.9,1.3-7.5,1s-4.8-1.3-6.9-2.9c-2-1.6-3.5-3.6-4.5-6s-1.4-4.8-1-7.3c0.3-2.5,1.2-4.7,2.8-6.8
					c1.6-2,3.6-3.6,6-4.6S448.1,319,450.7,319.4z M450.1,324c-2.5-0.3-4.8,0.3-6.8,1.9s-3.2,3.8-3.5,6.5s0.2,5.1,1.7,7.2
					s3.5,3.3,6,3.6c1.6,0.2,3.2,0,4.7-0.7s2.8-1.7,3.8-3c1-1.4,1.7-2.9,1.9-4.7c0.3-1.8,0.1-3.4-0.5-5s-1.6-2.9-2.8-3.9
					C453.2,324.9,451.7,324.2,450.1,324z"/>
				<path class="st0" d="M494.6,326.6c-1.6,9.2-3.2,18.4-4.8,27.6c-2-0.3-3-0.5-4.9-0.9c0.1-0.9,0.2-1.3,0.4-2.2
					c-1.8,1.5-4.3,2-7.4,1.5c-3.8-0.6-6.6-2.2-8.3-4.7c-1.7-2.5-2.3-5.7-1.7-9.5c1-6.4,1.5-9.5,2.4-15.9c2,0.3,3,0.5,5.1,0.8
					c-1,6.4-1.5,9.6-2.5,16c-0.3,2.1,0,4,1.1,5.6s2.7,2.6,4.7,2.9c2.1,0.3,3.9-0.1,5.4-1.3c1.5-1.2,2.4-2.7,2.7-4.7
					c1.1-6.5,1.7-9.7,2.8-16.2C491.5,326,492.5,326.2,494.6,326.6z M488.9,319.1c-0.2,1.2-0.3,1.8-0.5,3c-4.3-0.7-6.4-1.1-10.7-1.8
					c0.2-1.2,0.3-1.8,0.5-3C482.4,318,484.6,318.3,488.9,319.1z"/>
			</g>
		</g>
		<g>
			<g>
				<path class="st0" d="M117.6,381.1c6.4-1,11.8,0.7,16.2,5c3.2-5.4,7.9-8.5,14.2-9.3c5.9-0.8,10.9,0.5,15,3.8
					c4,3.3,6.4,8.2,7.1,14.7c1.2,10.9,1.8,16.4,3,27.4c-3.4,0.4-5,0.6-8.4,1c-1.1-9.6-2.3-19.3-3.4-28.9c-0.4-3.4-1.7-5.9-4-7.7
					c-2.3-1.8-5-2.5-8.2-2.1c-3.1,0.4-5.6,1.8-7.3,4.1c-1.7,2.3-2.3,5.1-1.9,8.5c1.3,9.6,2.7,19.2,4,28.8c-3.4,0.5-5,0.7-8.4,1.2
					c-1.4-9.6-2.8-19.2-4.2-28.8c-0.5-3.3-1.9-5.9-4.2-7.6s-5.1-2.3-8.2-1.8c-3.2,0.5-5.6,1.9-7.3,4.3c-1.7,2.3-2.2,5.2-1.7,8.5
					c1.6,9.6,3.2,19.1,4.8,28.7c-3.3,0.6-5,0.8-8.3,1.4c-1.9-10.9-2.8-16.3-4.7-27.1c-1.1-6.5-0.3-11.9,2.7-16.1
					C107.3,384.6,111.8,382,117.6,381.1z"/>
				<path class="st0" d="M178.9,397.9c-0.4-4.2,0.3-8.3,2.1-12.3c1.9-4,4.6-7.3,8.3-10c3.7-2.6,7.8-4.1,12.3-4.5
					c3.4-0.3,6.8,0.1,9.9,1.2c3.2,1.1,6,2.7,8.4,4.8c2.4,2.1,4.4,4.6,5.9,7.5s2.3,5.9,2.5,9.1c0.1,1.3,0,2.5-0.1,3.7
					c-13.2,0.8-26.3,1.8-39.5,3c1.2,3.7,3.2,6.7,6.2,8.8c3,2.1,6.3,3.1,9.9,2.8c5.2-0.4,9.3-3.1,12.4-8.2c2.7,2.2,4.1,3.3,6.7,5.4
					c-1.7,2.7-4.2,5.2-7.4,7.3c-3.2,2.1-6.9,3.3-11.1,3.7c-4.4,0.4-8.5-0.4-12.4-2.4c-3.9-1.9-7.2-4.7-9.7-8.2
					C180.9,406.2,179.4,402.2,178.9,397.9z M202.2,379.1c-3.7,0.3-6.9,1.8-9.6,4.4c-2.6,2.6-4.2,5.9-4.6,9.7
					c10.2-1,20.3-1.8,30.5-2.4c-0.7-2.5-1.8-4.6-3.4-6.5c-1.6-1.8-3.5-3.2-5.8-4.1C207.1,379.3,204.7,378.9,202.2,379.1z"/>
				<path class="st0" d="M243.8,378.5c0.1,3.2,1.4,5.6,3.8,7.3c2.4,1.7,5.2,2.5,8.5,2.4c2-0.1,4-0.5,5.7-1.4c1.8-0.8,3.2-2,4.3-3.6
					c1.1-1.6,1.6-3.4,1.5-5.5c-0.1-3.7-0.1-5.5-0.2-9.2c3.5-0.1,5.3-0.1,8.8-0.2c0.1,4,0.1,6,0.1,9.9c0,3.5-0.8,6.6-2.5,9.1
					c-1.7,2.6-3.7,4.2-6,4.9c1.5,0.4,2.9,1.2,4.2,2.4c1.3,1.3,2.4,2.9,3.3,4.9c0.8,2,1.3,4.2,1.3,6.5c0.1,4,0.1,6,0.1,10
					c-3.4,0-5.1,0.1-8.4,0.1c-0.1-3.7-0.1-5.5-0.2-9.2c0-2.1-0.6-3.9-1.7-5.4s-2.6-2.6-4.4-3.4c-1.8-0.7-3.7-1.1-5.8-1
					c-3.2,0.1-6,1.1-8.2,3s-3.3,4.4-3.1,7.6c0.2,3.7,0.2,5.5,0.4,9.2c-3.4,0.1-5.1,0.2-8.4,0.4c-0.2-4-0.3-6-0.5-9.9
					c-0.1-2.4,0.2-4.6,0.9-6.6s1.7-3.7,3-5.1s2.6-2.3,4-2.7c-2.3-0.5-4.4-2-6.3-4.5c-1.9-2.4-2.9-5.4-3.1-8.9c-0.2-4-0.3-6-0.5-9.9
					c3.5-0.2,5.3-0.3,8.8-0.4C243.5,373,243.6,374.8,243.8,378.5z"/>
				<path class="st0" d="M287.1,368.3c3.5,0,5.3,0,8.8,0c0,6.9,0,10.4-0.1,17.3c9.8,0,14.7,0.1,24.4,0.4c0.2-6.9,0.3-10.4,0.4-17.3
					c3.5,0.1,5.3,0.1,8.8,0.3c-0.5,15.9-1.1,31.8-1.6,47.7c-3.4-0.1-5.1-0.2-8.4-0.3c0.2-9,0.3-13.4,0.6-22.4
					c-9.7-0.3-14.6-0.3-24.3-0.4c0,9-0.1,13.5-0.1,22.4c-3.4,0-5.1,0-8.4,0C287.2,400.1,287.1,384.2,287.1,368.3z"/>
				<path class="st0" d="M383,372c-1.3,15.9-2.6,31.8-3.9,47.7c-3.4-0.3-5.1-0.4-8.4-0.7c0.1-1.5,0.2-2.3,0.3-3.8
					c-2.8,2.8-6.9,4.1-12.2,3.7c-6.5-0.4-11.4-2.5-14.7-6.5c-3.3-3.9-4.9-9.2-4.6-15.7c0.5-11,0.7-16.5,1.2-27.4
					c3.5,0.2,5.3,0.2,8.8,0.4c-0.6,11-0.9,16.6-1.4,27.6c-0.2,3.7,0.8,6.8,2.9,9.3s4.9,3.9,8.4,4.1c2.4,0.2,4.6-0.3,6.5-1.3
					s3.4-2.4,4.5-4.3c1.1-1.8,1.7-3.8,1.9-5.9c0.7-9.4,1.4-18.7,2.1-28.1C377.7,371.6,379.5,371.7,383,372z"/>
				<path class="st0" d="M403.7,373.9c-0.8,7.6-1.1,11.4-1.9,19c7.6-5.7,15.3-11.3,23.1-16.7c4.4,0.5,6.5,0.8,10.9,1.4
					c-8.3,5.7-12.4,8.6-20.6,14.5c2.9,0.3,5.5,1.4,7.7,3.3c2.3,1.8,3.9,4.1,5,6.6c1.1,2.6,1.4,5.1,1.1,7.6c-0.8,6-1.1,9-1.9,15
					c-3.4-0.4-5.2-0.6-8.6-1.1c0.7-5.5,1-8.2,1.6-13.7c0.4-3.1-0.4-5.7-2.4-7.7c-2-2.1-4.4-3.3-7.4-3.6c-1.9-0.2-3.9,0.2-5.8,1.2
					s-3.3,2.7-4,5c-0.7,6.7-1,10-1.7,16.7c-3.4-0.3-5.2-0.5-8.6-0.8c1.5-15.8,2.9-31.7,4.4-47.5
					C398.3,373.4,400.1,373.5,403.7,373.9z"/>
				<path class="st0" d="M485.2,385.1c-2.7,15.7-5.5,31.4-8.2,47.1c-3.3-0.6-5-0.9-8.3-1.4c0.2-1.5,0.4-2.2,0.6-3.7
					c-3.1,2.6-7.3,3.4-12.6,2.6c-6.4-1-11.1-3.6-14.1-7.8c-3-4.2-4.1-9.6-3.2-16.1c1.5-10.9,2.2-16.3,3.7-27.2
					c3.5,0.5,5.3,0.7,8.7,1.2c-1.6,10.9-2.4,16.4-3.9,27.4c-0.5,3.7,0.2,6.8,2.1,9.6c1.9,2.7,4.6,4.3,8,4.9c2.4,0.4,4.6,0.1,6.6-0.7
					c2-0.9,3.6-2.1,4.8-3.8c1.2-1.7,2.1-3.6,2.4-5.7c1.5-9.2,3.1-18.5,4.6-27.7C480,384.2,481.7,384.5,485.2,385.1z"/>
			</g>
		</g>
	</g>
</g>
<circle class="st3" cx="296.9" cy="580.7" r="112.1"/>
<path class="st0" d="M238.2,689.2"/>
<path class="st4" d="M275,704.5L275,704.5c-2,4.3-7,6.1-11.3,4.2l-48.9-22.6c-4.3-2-6.1-7-4.2-11.3l0,0c2-4.3,7-6.1,11.3-4.2
	l48.9,22.6C275.2,695.1,277,700.2,275,704.5z"/>
<path class="st0" d="M216.6,671.6l6.9-13.5c0.5-1,0-2.1-0.9-2.6l-23.3-12.3c-0.9-0.5-2.1-0.1-2.6,0.9l-9.8,20.5
	c-0.5,1,0,2.1,0.9,2.6c0,0,21.5,10.6,21.5,10.6c0.6,0.3,1.2,0.6,1.8,0.9c0.5,0.2,1.2,0.6,1.8,0.4c0.3-0.1,0.5-0.3,0.6-0.6
	c0.1-0.3,0.2-0.5,0.6-0.5c0.4,0,0.8,0.2,1.2,0.3c1.8,0.5,3-0.2,3.7-1.5c0.7-1.3-0.2-3.4-1.7-4.2
	C216.3,672.1,216.6,671.6,216.6,671.6z"/>
<path class="st0" d="M274.6,699.8l6.1-13.9c0.4-1,1.6-1.4,2.6-1l24.3,10.3c1,0.4,1.4,1.6,1,2.6l-9.7,20.5c-0.4,1-1.6,1.4-2.6,1
	c0,0-21.8-9.9-21.8-9.9c-0.6-0.3-1.2-0.5-1.8-0.9c-0.5-0.3-1.2-0.5-1.5-1.1c-0.1-0.3-0.1-0.6,0.1-0.8c0.1-0.3,0.2-0.5,0-0.8
	c-0.3-0.3-0.7-0.5-1-0.7c-1.5-1-1.7-2.5-1.2-3.8c0.6-1.4,2.8-2,4.3-1.3C274.3,700.3,274.6,699.8,274.6,699.8z"/>
<path class="st0" d="M274.4,506.8c0.1-4.3,22.5-3.9,22.5-3.9s22.5-0.3,22.5,3.9c0,4.2-1.5,50.9-22.6,50.9
	C276.5,557.6,274.3,511,274.4,506.8z"/>
<path class="st0" d="M229.8,618.5c-4.2,0.9-8.8-21.1-8.8-21.1s-5.3-21.8-1.2-22.8c4.1-1,49.9-9.8,54.6,10.7
	C278.9,605.2,233.9,617.7,229.8,618.5z"/>
<path class="st0" d="M285.3,656.3c-1.9,3.8-22-6.3-22-6.3s-20.4-9.4-18.6-13.3s23.4-45.2,42.4-36
	C305.4,609.7,287.2,652.6,285.3,656.3z"/>
<path class="st0" d="M349.1,636.8c1.8,3.9-18.6,13.3-18.6,13.3s-20.1,10.1-22,6.3c-1.9-3.8-20.7-46.5-1.7-55.6
	C325.2,591.9,347.4,633,349.1,636.8z"/>
<path class="st0" d="M373.6,574.3c4.1,1-1.3,22.8-1.3,22.8s-4.7,22-8.8,21.1c-4.1-0.9-49.3-12.8-44.6-33.4
	C323.6,565.1,369.5,573.3,373.6,574.3z"/>
<path class="st0" d="M341.3,517.3c3.4-2.6,16.9,15.4,16.9,15.4s14,17.5,10.7,20.2c-3.3,2.6-41.1,30-54,13.3
	C302.5,550.1,337.9,519.8,341.3,517.3z"/>
<path class="st0" d="M225.1,551.8c-3.3-2.7,11-20,11-20s13.7-17.8,17.1-15.2c3.3,2.6,38.8,32.9,25.7,49.4
	C266.1,581.9,228.3,554.5,225.1,551.8z"/>
<circle class="st0" cx="296.9" cy="580.7" r="14.4"/>
<ellipse transform="matrix(0.429 -0.9033 0.9033 0.429 -482.3656 614.5079)" class="st0" cx="244.9" cy="688.8" rx="2.8" ry="29.9"/>
<path class="st0" d="M244.3,701.1l-9.9-4.7c-0.8-0.4-1.2-1.4-0.8-2.2l2.8-5.9c0.4-0.8,1.4-1.2,2.2-0.8l9.9,4.7
	c0.8,0.4,1.2,1.4,0.8,2.2l-2.8,5.9C246.1,701.1,245.1,701.5,244.3,701.1z"/>
<path class="st0" d="M242.5,708.2l-13-6.2c-0.8-0.4-1.2-1.4-0.8-2.2l2.1-4.5c0.4-0.8,1.4-1.2,2.2-0.8l13,6.2
	c0.8,0.4,1.2,1.4,0.8,2.2l-2.1,4.5C244.3,708.3,243.3,708.6,242.5,708.2z"/>
<ellipse transform="matrix(0.429 -0.9033 0.9033 0.429 -505.0215 615.7434)" class="st0" cx="234.5" cy="707.3" rx="9.2" ry="1.5"/>
</svg>
