<?xml version="1.0" encoding="utf-8"?>
<!-- Generator: Adobe Illustrator 23.0.1, SVG Export Plug-In . SVG Version: 6.00 Build 0)  -->
<svg version="1.1" id="Слой_1" xmlns="http://www.w3.org/2000/svg" xmlns:xlink="http://www.w3.org/1999/xlink" x="0px" y="0px"
	 viewBox="0 0 2551.2 2551.2" style="enable-background:new 0 0 2551.2 2551.2;" xml:space="preserve">
<style type="text/css">
	.st0{font-family:'ArialMT';}
	.st1{font-size:12px;}
	.st2{fill:none;stroke:#23191A;stroke-width:3;stroke-miterlimit:10;}
</style>
<text transform="matrix(1 0 0 1 0 -4.998155e-05)" class="st0 st1"> </text>
<text transform="matrix(1 0 0 1 0 -4.998155e-05)" class="st0 st1"> </text>
<text transform="matrix(1 0 0 1 0 -4.998155e-05)" class="st0 st1"> </text>
<path class="st2" d="M1466.6,111.3c0,15.2-1.8,30-5.1,44.3c-0.4,1.9,1.7,5,0.7,8.2c-1.2,3.9-5.4,8.1-6.1,10.3
	c-0.4,1.4,1.1,11.8,0.7,13.1c-2.3,7-9,7.8-12.1,14.5c-2.3,5-2.9,10-5.7,14.8c-1.8,3.1,0.3-0.8-1.7,2.3c-3.3,5.1-13.9,7-17.7,11.8
	c-4.3,5.4-3.9,11.6-8.7,16.4c-34.6,34.9-82.4,56.6-135.3,56.6c-52.8,0-98-20.5-131.2-52.4c-2.8-2.7-8.5-5.5-11.1-8.3
	c-3.8-4.1-3.4-10.4-6.8-14.8c-2.5-3.3-8-3.7-10.3-7.1c-3.2-4.8-2.2-10.6-5-15.7c-1.6-2.9-5.2-4.9-6.6-7.9c-2.3-4.6-1.4-9.4-3.3-14.2
	c-1.6-4.1-4.1-6.2-5.4-10.3c-0.3-1-2.6-5-2.9-6c-5.4-17.9-8.3-36.6-8.3-55.6c0-39,11.5-75.2,31.3-105.5c4.1-6.2,8.5,7.8,13.2,2.1
	c10.7-12.9,23.1,10.4,36.7,0.8c31.1-22,73.4,4.6,114.2,4.6c41.2,0,74.9-26.4,106.1-4c12.2,8.7,23.3-15.9,33.1-4.6
	c5.5,6.3,10.6-6.9,15.3,0.1C1454.8,35.3,1466.6,71.9,1466.6,111.3z"/>
<path class="st2" d="M1432.4,115.2c0,14.9-2.1,29.2-6,42.8c-0.3,1,0.4,4.1,0.1,5.1c-0.6,2-2.3,1.9-3,3.9c-0.8,2.4,0.3,5.7-0.7,8
	c-0.6,1.5-3.3,2-4,3.5s-0.3,3.9-1,5.4c-1,2-3,3-4.1,5c-0.7,1.4-1.5,5.7-2.3,7.1c-1.2,2-3.4,1-4.6,2.9c-1.1,1.8-1.3,6.5-2.5,8.2
	c-1.6,2.3-3.3,0.5-5,2.7c-0.7,0.8-0.5,4.1-1.4,5.3c-1.1,1.5-3.2,1-4,2c-1.2,1.3-1.3,3.7-2.5,5c-1.7,1.9-3.5,1.7-5.3,3.5
	c-1.1,1.1-1.3,3.2-2.4,4.3c-1.8,1.7-3.6-0.7-5.5,0.9c-1.8,1.5-4.5,5.9-6.4,7.3c-0.9,0.7-3.8-0.6-4.7,0.1c-2,1.5-2.1,5-4.3,6.4
	c-1.7,1.1-3.4,0.2-5.1,1.2s-3.4,4.1-5.2,5c-22.7,12.7-48.9,19.9-76.8,19.9c-27.5,0-52.5-6.7-74.1-18.2c-1.2-0.7-4.5-1.3-5.7-2
	c-1.4-0.8-0.9-1.7-2.3-2.5c-1.5-0.9-5.9-0.8-7.3-1.8c-1.8-1.2-2.6-3.4-4.4-4.7c-1.3-1-3.6-1.9-4.9-2.9c-2.3-1.8-1.5-3.6-3.7-5.4
	c-1.2-1.1-3.5-1.2-4.7-2.3c-0.6-0.6-0.3-2.2-0.9-2.8c-0.9-0.9-0.8-0.7-1.7-1.6c-0.7-0.7-2.4-0.4-3.1-1.1c-0.6-0.6-2.1-3.2-2.7-3.8
	c-0.8-0.8-0.5-1.6-1.2-2.4c-1.2-1.4-4.4-2.7-5.6-4.2c-1.1-1.3-0.1-2.6-1.1-3.9c-1.1-1.4-3.2-1.9-4.3-3.4c-0.9-1.2-0.8-3.5-1.6-4.8
	c-0.7-1-3.3-1.9-3.9-2.9c-1-1.6-1-3.2-2-4.8c-0.8-1.2-2.5-2.5-3.2-3.8c-0.8-1.4,0.4-2.8-0.3-4.2c-0.6-1.2-2.2-2.3-2.8-3.5
	c-0.5-1,0-2.1-0.5-3.2c-0.6-1.2-2.1-2.5-2.7-3.7c-0.7-1.6-0.3-3.1-1-4.7c-0.5-1.2-1.9-2.4-2.4-3.6c-0.4-1,0.3-1.9-0.1-2.9
	c-0.4-1.1,0.2-2.2-0.1-3.4c-0.2-0.7-1.5-1.5-1.7-2.2c-0.5-1.7,0-3.5-0.5-5.2c-3.5-12.9-6.3-26.2-6.3-39.7c0-38,13.7-72.7,36.5-99.7
	c8.8-10.4,18.9,8.4,30.1,0.6c25.5-17.8,60.2,3.7,93.7,3.7c33.8,0,61.4-21.3,87-3.3c10,7,19.1-12.9,27.2-3.7
	C1417.8,40.1,1432.4,76,1432.4,115.2z"/>
<g>
	<path d="M1215.8,248.1l3.5-9c1-2.4,2.3-4.1,4-5.1c1.7-0.9,3.5-1.1,5.3-0.3c1.9,0.7,3.1,2,3.7,3.8c0.6,1.8,0.4,3.9-0.6,6.4l-3.5,9
		l-2.6-1l3.7-9.6c0.5-1.3,0.6-2.5,0.3-3.6c-0.4-1.1-1.1-1.8-2.1-2.2c-1.1-0.4-2.1-0.3-3.1,0.2c-1,0.6-1.8,1.5-2.3,2.8l-3.7,9.6
		L1215.8,248.1z"/>
	<path d="M1244.6,238.8c2.1,0.5,3.7,1.9,4.8,4c1.1,2.2,1.3,4.4,0.7,6.8c-0.6,2.5-1.9,4.4-3.8,5.8c-1.9,1.4-4,1.8-6.1,1.3
		c-2.1-0.5-3.7-1.8-4.8-4c-1.1-2.1-1.3-4.4-0.7-6.9c0.6-2.4,1.8-4.3,3.8-5.7C1240.4,238.7,1242.6,238.3,1244.6,238.8z M1243.9,241.7
		c-1.4-0.3-2.6,0-3.8,0.9c-1.2,0.9-2,2.2-2.4,3.9c-0.4,1.7-0.3,3.2,0.3,4.6c0.6,1.4,1.6,2.3,3,2.6c1.4,0.3,2.6,0,3.9-0.9
		c1.2-0.9,2-2.2,2.5-4c0.4-1.7,0.3-3.3-0.4-4.6C1246.4,242.9,1245.4,242,1243.9,241.7z"/>
	<path d="M1252.1,267.1l1.6-15.5c0.1-1.5,0.3-2.6,0.5-3.3c0.2-0.8,0.5-1.5,1-2.4c0.8-1.4,1.9-2.5,3.2-3.3c1.3-0.7,2.7-1,4.3-0.9
		c2.3,0.2,4,1.3,5.3,3.2c1.3,1.9,1.8,4.2,1.6,6.8c-0.3,2.6-1.2,4.6-2.9,6.2c-1.7,1.6-3.6,2.3-5.7,2.1c-0.6-0.1-1.2-0.2-1.7-0.3
		c-0.5-0.2-1-0.4-1.4-0.6l-0.7-4.1c1.2,1.2,2.5,1.9,3.8,2c1.5,0.2,2.8-0.3,3.9-1.3c1.1-1,1.7-2.4,1.9-4.3c0.2-1.9-0.1-3.4-0.9-4.7
		c-0.8-1.2-2-1.9-3.5-2.1c-1.5-0.1-2.7,0.3-3.8,1.3c-1.1,1-1.7,2.5-1.9,4.3l-1.7,16.9L1252.1,267.1z"/>
	<path d="M1278.9,242.5c2-0.1,3.7,0.7,5,2.4c1.1-1.9,2.6-2.9,4.6-3c1.9-0.1,3.4,0.5,4.6,1.8s1.9,3.2,2.1,5.6l0.7,10.2l-2.8,0.2
		l-0.7-10.8c-0.1-1.3-0.5-2.3-1.2-3s-1.5-1-2.6-1c-1,0.1-1.8,0.5-2.4,1.3c-0.6,0.8-0.8,1.8-0.7,3.1l0.7,10.8l-2.8,0.2l-0.7-10.8
		c-0.1-1.3-0.5-2.3-1.1-3c-0.7-0.7-1.5-1-2.6-1c-1,0.1-1.8,0.5-2.4,1.3c-0.6,0.8-0.8,1.8-0.7,3.1l0.7,10.8l-2.8,0.2l-0.7-10.2
		c-0.2-2.5,0.3-4.4,1.3-5.9S1277.1,242.6,1278.9,242.5z"/>
	<path d="M1313.8,255.5l-2-8.6c-0.4-1.8-1.2-3.2-2.4-4.1s-2.5-1.2-3.9-0.8c-1.4,0.3-2.5,1.2-3.1,2.5c-0.7,1.3-0.8,2.9-0.4,4.6
		c0.4,1.8,1.2,3.2,2.5,4.1c1.2,0.9,2.6,1.2,4,0.8c1.3-0.3,2.5-1.1,3.5-2.5l-0.2,4.1c-0.7,0.6-1.7,1-2.9,1.3c-2,0.5-3.9,0.1-5.8-1.2
		c-1.9-1.3-3.2-3.3-3.8-6c-0.6-2.6-0.4-4.9,0.6-6.9s2.7-3.3,4.9-3.8c1.5-0.4,2.9-0.3,4.3,0.3c1.4,0.5,2.6,1.5,3.6,2.8
		c0.5,0.7,1,1.5,1.3,2.3s0.6,1.9,0.9,3.2l1.7,7.3L1313.8,255.5z"/>
	<path d="M1333.1,248.7l-3.7-9.6c-0.5-1.3-1.3-2.3-2.2-2.8s-1.9-0.6-3-0.2c-1,0.4-1.7,1.1-2,2.2s-0.2,2.2,0.3,3.6l1.8,4.6
		c0.6,1.5,0.6,2.9,0,4.2c-0.6,1.3-1.8,2.3-3.5,3l-1.2-3c0.9-0.4,1.5-0.8,1.8-1.4c0.4-0.7,0.4-1.5,0-2.4l-1.3-3.3
		c-1-2.5-1.2-4.6-0.7-6.4s1.7-3.1,3.6-3.8c1.9-0.7,3.6-0.6,5.2,0.3c1.6,0.9,2.9,2.6,3.9,5.1l3.5,9L1333.1,248.7z"/>
</g>
<g>
	<path d="M1173.4,245.6l-4.5-4c-0.6-0.6-1.2-0.8-1.7-0.8s-1,0.4-1.6,1l-8.2,9.3l-2.3-2.1l7.9-9c1.4-1.6,2.6-2.4,3.8-2.6
		c1.1-0.2,2.4,0.3,3.8,1.5l4.9,4.3L1173.4,245.6z"/>
	<path d="M1162.1,266.1l9.1-12.7c0.8-1.2,1.5-2.1,2.1-2.6c0.5-0.6,1.2-1.1,2.1-1.5c1.5-0.8,3-1.2,4.7-1.1c1.6,0.1,3.1,0.6,4.5,1.6
		c2,1.5,3.2,3.4,3.6,5.7c0.3,2.4-0.3,4.7-1.8,6.8c-1.5,2.1-3.4,3.4-5.8,3.9c-2.4,0.5-4.5,0-6.5-1.4c-0.6-0.4-1.1-0.8-1.4-1.2
		c-0.4-0.4-0.7-0.8-1-1.3l1.3-4c0.6,1.7,1.4,3,2.6,3.9c1.4,1,2.8,1.3,4.3,1s2.8-1.2,3.9-2.7c1.1-1.5,1.6-3.1,1.4-4.6s-1-2.8-2.3-3.7
		c-1.3-0.9-2.7-1.2-4.2-0.9c-1.5,0.3-2.8,1.2-3.9,2.8l-9.9,13.9L1162.1,266.1z"/>
	<path d="M1197.1,278.5l4.2-7.8c0.9-1.7,1.2-3.2,0.8-4.7s-1.3-2.6-2.7-3.4s-2.9-0.9-4.3-0.4c-1.5,0.5-2.6,1.6-3.5,3.2
		c-0.9,1.6-1.1,3.2-0.7,4.7c0.4,1.5,1.3,2.7,2.8,3.5c1.3,0.7,2.9,0.9,4.6,0.6l-3,2.9c-1-0.1-2.1-0.4-3.4-1.1c-2-1.1-3.4-2.7-4-5
		c-0.7-2.4-0.4-4.7,0.9-7.1s3-3.9,5.3-4.7c2.3-0.8,4.5-0.5,6.7,0.6c1.5,0.8,2.6,1.9,3.4,3.3s1.2,2.9,1.1,4.6c0,0.9-0.2,1.8-0.5,2.6
		c-0.3,0.8-0.8,1.8-1.4,3l-3.5,6.6L1197.1,278.5z"/>
	<path d="M1225.1,270.4c0.5,0.2,0.9,0.5,1.1,1c0.3,0.5,0.3,1.1,0.2,1.7l-2.7,16.2l-3-1.1l2.7-13.9l-6.7,9.5
		c-0.6,0.8-1.1,1.4-1.6,1.6c-0.5,0.3-1,0.3-1.4,0.2c-0.5-0.2-0.9-0.6-1.1-1.1s-0.3-1.3-0.2-2.3l1.2-11.6l-7.1,12.3l-3-1.1l8.5-14
		c0.4-0.6,0.8-1,1.3-1.2s1-0.2,1.5,0c1.1,0.4,1.6,1.3,1.5,2.8l-1,11.6l6.9-9.4C1223.1,270.4,1224.1,270,1225.1,270.4z"/>
	<path d="M1245.9,275.7c0.5,0.1,0.9,0.4,1.3,0.9c0.3,0.5,0.5,1,0.4,1.7l-0.5,16.4l-3.1-0.7l0.8-14.2l-5.3,10.4
		c-0.5,0.9-0.9,1.5-1.3,1.8c-0.4,0.3-0.9,0.5-1.4,0.4c-0.6-0.1-1-0.4-1.3-0.9s-0.4-1.2-0.5-2.3l-0.4-11.6l-5.3,13.2l-3.1-0.7
		l6.5-15.1c0.3-0.7,0.6-1.1,1.1-1.4s1-0.3,1.5-0.2c1.1,0.2,1.7,1.1,1.8,2.6l0.6,11.7l5.5-10.3C1243.9,276,1244.8,275.5,1245.9,275.7
		z"/>
	<path d="M1260.6,277.8c2.4,0.2,4.4,1.3,5.9,3.3s2.2,4.2,2,6.6c-0.2,2.5-1.3,4.6-3.1,6.3c-1.9,1.7-4,2.4-6.4,2.2
		c-2.4-0.2-4.4-1.3-5.9-3.3s-2.2-4.2-1.9-6.7c0.2-2.5,1.3-4.5,3.1-6.2C1256,278.3,1258.1,277.6,1260.6,277.8z M1260.4,280.8
		c-1.5-0.1-2.9,0.3-4,1.4c-1.2,1.1-1.8,2.5-2,4.2s0.2,3.2,1.2,4.5c0.9,1.3,2.2,2,3.7,2.1s2.9-0.3,4.1-1.4s1.8-2.5,2-4.3
		s-0.2-3.3-1.2-4.5C1263.1,281.6,1261.9,280.9,1260.4,280.8z"/>
	<path d="M1290.1,304l-3.1,0.2l-1.2-17c-0.1-1.9-0.8-3.4-1.9-4.4c-1.1-1-2.5-1.5-4.1-1.4c-1.7,0.1-3,0.8-3.9,2
		c-1,1.2-1.4,2.8-1.2,4.7c0.1,1.8,0.8,3.2,1.9,4.3c1.1,1.1,2.6,1.5,4.2,1.4c1.5-0.1,2.9-0.7,4.3-1.9l-0.9,4.1
		c-0.4,0.2-0.9,0.3-1.5,0.5c-0.6,0.2-1.3,0.3-1.9,0.3c-2.4,0.2-4.5-0.6-6.2-2.2c-1.8-1.7-2.8-3.8-2.9-6.3c-0.2-2.7,0.5-5,2-6.8
		s3.5-2.8,6-3c1.5-0.1,2.9,0.1,4.1,0.7c1.3,0.6,2.4,1.4,3.3,2.6c0.7-1.3,1.7-2.3,2.9-3c1.2-0.8,2.5-1.2,4-1.3
		c2.5-0.2,4.6,0.5,6.4,2.2c1.8,1.6,2.7,3.8,2.9,6.5c0.2,2.6-0.5,4.8-2,6.7c-1.5,1.9-3.5,2.9-5.9,3.1c-0.7,0-1.3,0-1.9,0
		c-0.6,0-1.1-0.2-1.6-0.3l-1.5-3.9c1.5,1,3,1.4,4.5,1.3c1.7-0.1,3-0.8,4-2s1.4-2.7,1.3-4.5c-0.1-1.9-0.8-3.4-1.9-4.4
		c-1.1-1.1-2.5-1.5-4.2-1.4c-1.6,0.1-2.9,0.8-3.8,2c-1,1.2-1.4,2.7-1.2,4.6L1290.1,304z"/>
	<path d="M1312.8,274c2.3-0.6,4.6-0.2,6.7,1.2c2.1,1.4,3.4,3.3,4,5.7c0.6,2.5,0.3,4.8-0.9,6.9c-1.2,2.2-3,3.5-5.4,4.1
		c-2.4,0.6-4.6,0.2-6.7-1.2c-2.1-1.4-3.4-3.3-4-5.7c-0.6-2.4-0.3-4.7,0.9-6.9C1308.6,276,1310.4,274.6,1312.8,274z M1313.4,276.9
		c-1.5,0.4-2.6,1.2-3.4,2.6c-0.7,1.4-0.9,2.9-0.5,4.7c0.4,1.7,1.3,3,2.6,3.9c1.3,0.9,2.7,1.2,4.2,0.8c1.5-0.4,2.6-1.2,3.4-2.6
		s0.9-3,0.5-4.7c-0.4-1.7-1.3-3-2.6-3.9C1316.4,276.8,1314.9,276.6,1313.4,276.9z"/>
	<path d="M1323.9,271.4l2.9-1.1l2.3,6l8-3l-2.3-6l2.9-1.1l6.2,16.7l-2.9,1.1l-2.9-7.8l-8,3l2.9,7.8l-2.9,1.1L1323.9,271.4z"/>
	<path d="M1340.9,264.8l2.7-1.4l2.9,5.7l7.6-3.9l-2.9-5.7l2.7-1.4l8.1,15.8l-2.7,1.4l-3.8-7.4l-7.6,3.9l3.8,7.4l-2.7,1.4
		L1340.9,264.8z"/>
	<path d="M1363.6,251.6c2-1.3,4.2-1.7,6.7-1.2s4.4,1.9,5.7,3.9c1.4,2.1,1.9,4.4,1.5,6.8c-0.4,2.5-1.6,4.4-3.7,5.7
		c-2,1.4-4.2,1.7-6.7,1.2c-2.4-0.6-4.3-1.9-5.7-4s-1.9-4.3-1.5-6.8C1360.4,254.9,1361.6,253,1363.6,251.6z M1365.2,254.1
		c-1.3,0.9-2,2.1-2.2,3.6c-0.2,1.6,0.2,3.1,1.1,4.5c1,1.4,2.2,2.4,3.8,2.8c1.5,0.4,3,0.2,4.2-0.7c1.3-0.9,2-2.1,2.3-3.7
		s-0.1-3.1-1.1-4.6s-2.2-2.4-3.8-2.8C1367.9,253,1366.6,253.2,1365.2,254.1z"/>
	<path d="M1384.4,235.7l11.6,13.6l-2.3,2l-0.9-1.1c0,0.7-0.1,1.4-0.5,2.1c-0.3,0.7-0.9,1.3-1.7,2c-1.8,1.5-3.6,2.2-5.5,1.9
		c-1.9-0.3-3.6-1.3-5.2-3.2l-6.6-7.8l2.3-2l6.7,7.8c0.9,1,1.9,1.6,3.1,1.8c1.2,0.2,2.3-0.2,3.2-1c1-0.8,1.5-1.9,1.5-3.1
		s-0.4-2.3-1.2-3.2l-6.8-8L1384.4,235.7z M1378.6,235.2l1.3,1.5l-4.9,4.2l-1.3-1.5L1378.6,235.2z"/>
</g>
<g>
	<path d="M1213.1,298.8c2.3,0.7,3.8,2.2,4.6,4.4c1.9-1.3,4-1.6,6.2-0.9c2.1,0.7,3.6,1.9,4.5,3.6c0.8,1.7,0.9,3.8,0.1,6.1l-3.2,9.8
		l-3.1-1l3.3-10.3c0.4-1.2,0.3-2.3-0.2-3.2c-0.5-1-1.3-1.6-2.5-2c-1.1-0.4-2.2-0.3-3.1,0.2c-0.9,0.5-1.6,1.3-2,2.6l-3.3,10.3l-3.1-1
		l3.3-10.3c0.4-1.2,0.4-2.3-0.1-3.2c-0.5-0.9-1.3-1.6-2.5-2s-2.2-0.3-3.2,0.2s-1.6,1.3-2,2.6l-3.3,10.3l-3.1-1l3.2-9.8
		c0.8-2.4,2-4,3.7-4.9S1210.9,298.2,1213.1,298.8z"/>
	<path d="M1232.1,314.1c0.4-2.4,1.7-4.4,3.8-5.9s4.4-2,7-1.6c2.5,0.4,4.6,1.7,6.1,3.9c1.5,2.1,2,4.4,1.6,6.8l-0.3,1.3l-14.8-2.6
		c0,1.5,0.5,2.8,1.4,3.8c0.9,1.1,2,1.7,3.4,2c1.1,0.2,2.1,0.1,3-0.2c0.9-0.4,1.7-0.9,2.4-1.6l2,2.6c-0.9,0.8-2,1.5-3.2,1.9
		c-1.5,0.5-3.1,0.6-4.7,0.4c-2.6-0.5-4.6-1.7-6.1-3.8C1232.1,318.9,1231.6,316.6,1232.1,314.1z M1242.4,309.6
		c-1.4-0.2-2.6,0-3.9,0.7c-1.2,0.7-2.1,1.7-2.6,3.1l11.4,2c0-1.4-0.5-2.7-1.4-3.8C1244.9,310.5,1243.9,309.9,1242.4,309.6z"/>
	<path d="M1257.8,312.4c-0.1,1.2,0.3,2.1,1.1,2.9c0.8,0.7,1.9,1.1,3.1,1.2s2.3-0.2,3.1-0.7c1-0.7,1.5-1.6,1.6-2.7l0.2-3.4l3.3,0.2
		l-0.2,3.7c-0.1,1.3-0.5,2.4-1.2,3.3s-1.5,1.4-2.4,1.6c0.9,0.3,1.6,0.9,2.2,1.9c0.6,1,0.8,2.2,0.7,3.5l-0.2,3.7l-3.3-0.2l0.2-3.4
		c0.1-1.2-0.3-2.1-1.1-2.9c-0.8-0.7-1.8-1.1-3-1.2s-2.3,0.2-3.2,0.8c-0.9,0.6-1.4,1.5-1.5,2.7l-0.2,3.4l-3.3-0.2l0.2-3.7
		c0.1-1.3,0.5-2.4,1.2-3.3s1.5-1.5,2.4-1.6c-0.9-0.3-1.6-0.9-2.2-1.9c-0.6-1-0.8-2.1-0.7-3.5l0.2-3.7l3.3,0.2L1257.8,312.4z"/>
	<path d="M1273.9,309.9l3.3-0.1l0.2,6.4l9.2-0.3l-0.2-6.4l3.3-0.1l0.6,17.8l-3.3,0.1l-0.3-8.4l-9.2,0.3l0.3,8.4l-3.3,0.1
		L1273.9,309.9z"/>
	<path d="M1309.1,306.8l2.5,17.7l-3.2,0.5l-0.2-1.4c-0.4,0.7-1,1.2-1.7,1.6s-1.6,0.7-2.7,0.8c-2.5,0.4-4.5-0.1-6-1.3
		c-1.5-1.2-2.5-3-2.8-5.5l-1.4-10.2l3.2-0.5l1.4,10.2c0.2,1.4,0.8,2.4,1.8,3.2c1,0.8,2.1,1.1,3.5,0.9c1.4-0.2,2.4-0.8,3.1-1.8
		s1-2.1,0.8-3.4l-1.5-10.4L1309.1,306.8z"/>
	<path d="M1316.6,305.2l1.7,6.9l5.9-8.8l3.9-1l-5.2,7.8c1.6-0.4,3.2-0.2,4.6,0.8c1.4,1,2.3,2.1,2.7,3.5l1.4,5.5l-3.2,0.8l-1.2-5
		c-0.3-1.1-0.9-1.9-1.9-2.4s-2-0.6-3.1-0.3c-0.7,0.2-1.3,0.5-1.8,1c-0.6,0.6-0.9,1.4-0.9,2.4l1.5,6.1l-3.2,0.8l-4.3-17.3
		L1316.6,305.2z"/>
	<path d="M1345.4,296.1l6.1,16.8l-3.1,1.1l-0.5-1.3c-0.3,0.7-0.7,1.3-1.3,1.9c-0.6,0.5-1.4,1-2.5,1.3c-2.4,0.9-4.4,0.9-6.2,0
		c-1.8-0.9-3.1-2.4-3.9-4.7l-3.5-9.6l3.1-1.1l3.5,9.7c0.5,1.3,1.3,2.2,2.4,2.8c1.1,0.6,2.3,0.6,3.6,0.1s2.2-1.3,2.7-2.4
		s0.5-2.3,0.1-3.5l-3.6-9.9L1345.4,296.1z"/>
</g>
</svg>
