<?xml version="1.0" encoding="utf-8"?>
<!-- Generator: Adobe Illustrator 23.0.1, SVG Export Plug-In . SVG Version: 6.00 Build 0)  -->
<svg version="1.1" id="Слой_1" xmlns="http://www.w3.org/2000/svg" xmlns:xlink="http://www.w3.org/1999/xlink" x="0px" y="0px"
	 viewBox="0 0 1021 799.9" style="enable-background:new 0 0 1021 799.9;" xml:space="preserve">
<style type="text/css">
	.st0{fill:#FFE133;}
	.st1{fill:none;stroke:#FFE133;stroke-width:4;stroke-miterlimit:10;}
	.st2{fill:#FFFFFF;}
</style>
<path class="st0" d="M160.3,240.4l-14.9-14l33.7-32.3l25,4l-19.8,19.8l63.1,57.5c0,0,45.1-52.2-43.5-107.9c0,0,95.4,23.1,72.9,104.9
	c0,0-3.1,9.2-11.4,19l13.7,13c0,0,3.8,2.7-2.4,9c-6.1,6.3-10.1,2.5-10.1,2.5l-14.8-15c0,0-36.1,22.8-88.7-20l-2,2
	c0,0,4.3,10.5-6.5,8.2c0,0-4.6,3.3-5,7.6c-0.4,4.3-15.5,24-23.5,16.9s12-23.9,16.2-24.3c0.7-0.1,5.8-4,5.8-4s-4.1-11.5,6.8-8.9l6-7
	c0,0,46.2,25.7,73.7,12.5l-58.8-58.9L160.3,240.4z"/>
<polygon class="st1" points="221.1,153.6 202.3,140.5 183.6,153.8 190.7,132.3 171.9,119.1 195,119 202.1,97.5 209.4,119 
	232.6,118.8 213.9,132.2 "/>
<g>
	<path class="st0" d="M154.2,292.1l2.4,2.4l1.3,2.6l3.7,11.9l2.2,12.5l-0.9,2.1l-4.7,6.3l-10.4,7.1l-19-17.2l0.5-21.2l13.3-4.3
		c0,0,1.8,0.9,3.9-0.3"/>
	<polygon points="173,466.4 171.1,416.3 159.1,368.9 146.8,344.1 123.5,344.4 150.1,465.5 	"/>
	<path class="st0" d="M121.7,555.1c0,0-1.7-9.2-5-19.8c-4.1-12.9-13.4-23.5-25.9-28.8c-4.3-1.8-8.4-2.9-11.4-2.3
		c-18.8,3.6-18.7,7.1-18.7,7.1L47.2,520l-4.7,6.3l-3.3,6.3l27.6,28.2l51.6,5L121.7,555.1z"/>
	<path class="st0" d="M128.8,588.1c0,0-7.2-0.3-10.8-7c-3.6-6.7-42.9-10.9-42.9-10.9l12,39.3l2.6,22.8L76,639.6l3.4,29.5l40.2,0.6
		l10.8-2.8l24.7-20.4l36.7-8.4l10.3-4.1l-0.8-3.8c0,0-1.1-2.4-1.2-3.6c-0.1-1.2-7.1-17.6-7.1-17.6l-9.3-26.5l-21.8-28l-13.9-5.2
		l-8.5,8.2l-0.9,21.2l-0.3,5.8l-3.2,4.2L128.8,588.1z"/>
	<polygon class="st0" points="85.5,676.1 66.9,693.2 81.1,703.3 97.4,708.1 135.1,729.6 163.9,731.9 213.7,712 206.9,660.1 
		201,637.3 166.7,645.4 	"/>
	<path class="st0" d="M177.4,680c0,0,3,4.1,6,6.1c3,2,10.2,1.6,10.2,1.6l16.1-3.2l0.5-4.7l0.8-2.5c0,0,0.5,3.3,2.7,11.8
		c2.1,8.5,10.4,41.2,10.4,41.2l1.6,23.7l0.8,15.6l13.9,25.9L172,815l-40,8.8l-10-30.9l10.7-45.8l-19.9-19.5L177.4,680z"/>
	<g>
		<path d="M283,774.5c-2.5,0.1-4.9,0.8-7.4,1.3c-0.6-2.3,0-4.4,1-6.3c0.7-1.4,1.5-2.7,2.1-4.1c1.3-3.2,0.3-6.8-2.6-8.5
			c-4.5-2.6-9.2-5-13.8-7.5c-1.2-0.6-2.3-1.3-3.8-2.1c3.8-1.2,7.5-0.8,11-3.1c-1.5-0.9-2.6-1.6-3.7-2.2c-6-3.2-12.1-6.2-18.1-9.5
			c-2.2-1.2-4.1-3.1-6.4-4c-2.6-1-4-2.7-5-5c-0.6-1.3-1.3-2.6-1.8-4c-0.2-0.5-0.2-1.2,0-1.6c1.6-2.9,0.3-5.8,0-8.6
			c-1.2,2.9-0.7,6.4-3.4,9.1c-1.6-1.9-3.2-3.6-4.7-5.5c-0.9-1.1-0.8-2.3,0.2-3.4c2.4-2.8,4.7-5.7,7.1-8.5c2.5-2.9,3.4-6.9,2.5-10.6
			c-0.9-3.7-2.3-7.4-3.6-11c-1.1-2.9-0.9-4.8,1.9-6.2c3.3-1.6,6.8-2.8,10.3-3.9c3.1-1,6.4-1.8,9.5-2.8c0.8-0.2,1.4-0.9,2.1-1.4
			c-0.1-0.3-0.1-0.4-0.1-0.7c-4.1-1.2-8.1,0.1-12.1,1.1c0.8-0.7,1.6-1.4,2.5-1.8c3.5-1.9,7-4,10.7-5.5c2.5-1,3.9,0.2,3.9,2.8
			c-0.1,4.9-2,9.3-3.6,13.8c-3.7-0.7-5.9-0.4-8,1.4c-4.8,4.3-6.4,9.7-5.4,16c0,0.1,0.2,0.1,0.4,0.2c3.7-3.6,6.4-7.6,6.6-13.1
			c0.4,0.7,0.7,1.4,0.7,2.1c-0.2,5.5-1.6,10.7-5.3,15c-0.3,0.4-0.6,1.1-0.4,1.5c0.6,1.7,1.4,3.4,2.2,5.2
			c10.6-8.9,15.4-20.7,18.5-33.5c0.4,0.5,0.5,0.8,0.6,1.2c2.5,9.1,4.2,18.3,4.1,27.8c-0.1,9.3-1.9,18.2-7.3,26
			c-1,1.5-2.3,2.9-3.3,4.3c3.7,3.9,7.4,7.6,10.9,11.6c5.3,6.1,10.4,12.5,15.6,18.7c1.6,1.9-0.2,13,1.3,15.2c0.1,0.1,0,0.3-0.2,0.3
			L283,774.5z M142.7,475.9c0.7-4.2-1.1-16.9-1.1-16.9c-0.1-1.1-0.2-2.2-0.4-3.3c-0.1-0.8,0.1-1.8-0.1-2.7c-1.7-7.7-3.8-15.4-5-23.2
			c-2.4-16.5-4.7-31.9-6.9-48.5l-1-6.2l-6.8-24.8c-0.3-4.3-1.3-8.5-3.8-12.4c-2.2-3.5-3-7.6-3-11.8c-0.1-11,4-20.8,9.2-30.2
			c1-1.7,2.6-2.5,4.5-2.9c4.4-1,8.8-0.1,13.2,0.1c1.5,0.1,2.1,1.2,1.6,2.5c-0.5,1.2-1.3,2.4-2.2,3.5c-1.3,1.5-2.8,2.8-4.1,4.3
			c-0.9,1.1-1.5,2.5-2.2,3.8c0.2,0.2,0.2,0.2,0.4,0.4c7.5-3.2,14-8.7,22.8-9.1c-0.2-1.1-0.3-1.9-0.5-2.6c-0.7-2.4-1.1-2.5-3.5-1.6
			c-2.5,0.9-5,1.8-7.5,2.5c-0.7,0.2-1.5-0.1-2.2-0.2c0.3-0.7,0.4-1.5,0.8-2.1c1-1.2,2.1-2.2,3.2-3.3c0.7-0.6,1.2-1.2,1.5-1.7
			c1.1-1.5,3.3-1.8,4.7-0.5l0.9,0.8c1.5,3.4,4,8.7,4.4,9.9c2.2,6.5,5.6,14.4,4.6,22.2c-0.7,5.5-6.3,3.2-6.6,19.5
			c0,1.5-2.1,5.3-1.7,6.9l0,4.7c0,7.6,1.4,12.3,3.6,19.6c7.4,24.2,12.4,48.7,12.7,50.2c0.3,1.6,1.7,9.1,1.8,9.7
			c-0.1,0.7,1.2,12.9,1.2,13.1c0.4,11.7,8.3,22.5,8.5,34.2c0.2,16.3,0.6,32.5,2.6,48.7c1.4,11.4,2.7,22.9,3,34.3
			c0.5,17.6,2,35,8.4,51.6c1.1,2.9,1.8,6.1,2.6,9.2c0.2,0.9-0.1,1.9-0.2,2.8c-1.2-0.6-1.9-1.3-2.5-2c-3.1-3.7-5-8.1-6.7-12.6
			c-1.8-4.9-3.4-9.9-5.4-14.7c-2.2-5.2-6-8.7-11.9-9.1c-0.5,0-1.1-0.4-1.4-0.7c-1.4-1.9-3.3-2.5-5.8-2.9c0.2,1.7,0.1,3.2,0.5,4.6
			c1,3.3,2.3,6.5,3.4,9.7c0.5,1.7,0.8,3.4,1.2,5.1c-0.3,0.2-0.3,0.2-0.5,0.4c-2.1-1.2-4.3-2.3-6.4-3.5c-2.1-1.1-4.3-2.3-6.4-3.4
			c-0.1,0.5,0.2,0.4,0.5,0.3c4.2-1.8,4.7-3.4,2.7-7.4c-3-6.1-5.9-12.1-8.6-18.3c-1.9-4.3-3.2-8.8-5.1-13.1c-0.5-1.2-1.9-2.8-2.8-2.7
			c-1.6,0.1-3.6,0.6-3.6,3.1c0,3.2-0.5,6.5-0.2,9.7c1.2,10.2,4.7,19.5,11.4,27.5c-1.2-0.6-2.3-1.4-3.5-2.1c-3.2-2-6.3-4.1-9.6-5.9
			c-1.3-0.7-2.9-0.8-4.6-1.2c0.1,4.1,1.2,7.2,3.7,9.7c1.7,1.7,3.5,3.3,5.1,5c2.1,2.1,3.5,4.7,4.4,8.2c-1.1-0.7-1.9-1.1-2.5-1.6
			c-4.8-4.6-9.5-9.2-14.3-13.7c-0.2-0.2-0.4-0.5-0.4-0.7c-0.8-2.6-1.5-5.1-2.3-7.9c3.4-0.8,3.5-3.9,3.7-7.1c0.4-7.2,1-14.5,3.5-21.4
			c2.6-7.2,4.4-14.8,4.7-22.5c0.4-9.2,1-18.4,0.8-27.5c-0.1-4.6-0.1-9.2,0.4-13.9c0.3-2.8,0.3-5.3,0.2-8c-0.1-2.9,0-5.8,0.5-8.7
			c0.1-0.6,0.4-1.2,0.4-1.8 M154.3,361l-5.4-9.2c-0.2-0.6-0.3-1.3-0.2-1.9c0.2-2-1.1-3.5-3-3.2c-4.8,0.8-9.6,1.7-14.4,2.6
			c-1,0.2-1.7,0.5-1.6,1.9l6.6,20.1l3.7,14.9c5,18.2,8.6,36.7,13.9,54.9c1.6,5.5,4.4,10.6,6.8,15.8c0.6,1.4,1.8,2.6,3,3.6
			c1.2,1.1,2.7,1,3.6-0.4c0.9-1.4,1.8-3,2.3-4.6c3.2-10.7-11.1-23.1-5-34.4c-1.8-17.4,1.9-32.5-4.9-48.5L154.3,361z M37.9,806.4
			c2.1,0.1,3.6-0.7,5.4-2.8c-2.5,0.3-4.6,0.7-6.7,0.6c-2.1-0.1-4.1-0.7-6.1-1.2c-1.9-0.5-3.8-1.3-5.9-1.9c2.8-2.3,5.5-3,8.7-2.9
			c6.2,0.1,11.2-2.1,14.2-8.2c2.4-4.9,7.3-6.7,12.2-8c3.8-1,7.6-1.9,11.4-2.7c6.9-1.5,13-4.6,18-9.5c7.5-7.3,14.8-14.8,22.1-22.2
			c2-2,3.8-4.1,5.8-5.9c1.4-1.2,1.3-2.3,0.5-3.7c-2.9-5.4-6.9-9.9-11-14.3c-5.2-5.5-10.6-10.8-14.4-17.3c-0.7-1.2-1.6-1.2-2.8-0.7
			c-6.4,2.7-11.4,7-15,13.1c-4.1,7-8.1,14.1-12.5,20.9c-2.5,3.9-5.7,7.3-8.5,10.9c-4.5,5.6-9.5,10.9-13.4,16.9
			c-8.1,12.5-6.9,20.9-19.6,28.5c-2.1,1.3,2.2,3.1,0,4.5c0.7,1.5-2.4,4.3-0.2,4.6c1.4,0.2-2.5,1.1-1.6,2.5 M138.1,682.4
			c8-1.9,14.5-6.8,21.5-10.9c10.3-6.1,21-7.8,32.2-2.7c1.2,0.5,2.4,1,3.7,1.4c3.7,1.2,6.4-0.8,5.8-4.6c-0.3-2.3-0.9-4.7-1.8-6.9
			c-1.8-4.3-2-8.7-1.6-13.2c0.2-2.4,0.5-4.9,0.5-7.3c0-0.7-0.6-1.3-0.9-2c-0.6,0.4-1.2,0.8-1.6,1.4c-1.4,1.8-2.7,3.8-4.2,5.5
			c-2.8,3.2-6.4,4.6-10.8,4.4c-6.1-0.2-12.3-0.2-18.4,0.2c-6.1,0.4-11.7,2.7-16.5,6.6c-7.9,6.4-15.1,13.5-20.8,21.9
			c-1.4,2.1-2.5,4.4-3.5,6.6c-0.5,1.1-0.6,2.4-0.9,3.4C126.6,684.9,132.4,683.8,138.1,682.4z M168.8,701.8c-0.5-2.1-0.3-4.4-0.5-7.1
			c2.9,1.4,3.6,3.8,4.6,6.3c3.8-2.5,7.5-5,12.1-5.6c-2.1,4.7-5.1,8.5-9.6,10.9c0.8,2.7,2.6,3.9,5.3,3.2c1.9-0.5,4-1.2,5.6-2.4
			c2.8-2.1,5.3-4.5,7.8-7c0.9-0.9,1.2-2.3,2-4c-2.4,0.5-4.1,0.8-5.9,1.1c-0.1-0.2-0.2-0.3-0.3-0.5c0.4-0.5,0.8-1,1.2-1.4
			c3.8-3.5,3.6-12.4-0.3-15.8c-1.7-1.5-3.8-1.7-5.8-1c-5.6,2.2-11.3,2.8-17.2,1.9c-8-1.2-14.6,1-19.6,7.6c-0.8,1-1.8,1.9-2.8,2.8
			c-1.4,1.2-1.2,2.5,0,3.5c1,0.8,2.3,1.2,3.5,1.7c0.7,0.3,1.5,0.2,2.1,0.5c0.6,0.4,1,1.2,1.2,1.9c0.1,0.2-0.7,0.8-1.1,1.1
			c-1.9,1.3-3.9,2.5-5.7,3.9c-1.2,1-2.6,2.4-1.8,4c0.6,1.2,2.1,2.2,3.4,2.6c4.7,1.3,9.3,0.6,13.9-0.7c2.4-0.7,4.7-1.4,7,0.9
			C168.8,707.3,169.5,704.7,168.8,701.8z M122.6,744.2c-1.4-1.5-2.3-1.3-3.4,0.4c-7.5,11.4-16.7,21.2-27.6,29.3
			c-7.2,5.4-14.9,10.1-22.2,15.3c-8.2,5.9-16.1,12.2-23,19.7c-3.3,3.6-6.4,7.4-7.8,12.9c0.9,0,1.9,0.4,2.4,0
			c16.6-10.5,32.6-21.9,46.8-35.5c3.4-3.3,6.6-6.8,8.2-11.5c0.9-2.5,3-4.1,5.4-5c3.4-1.3,6.9-2.3,10.3-3.6c1.4-0.5,2.9-1.4,3.8-2.5
			c1.6-2.3,2.8-4.9,4.2-7.4c1.6-2.7,3.4-5.3,5.5-8.5C124.6,746.9,123.8,745.4,122.6,744.2z M144.9,752.8c4.1,5,5.2,11.1,5.1,17.5
			c-0.1,6.5-1.1,13.1-1,19.6c0,5.6-2,10.1-5.3,14.3c-2.3,3-4.3,6.2-6.2,9.4c-1,1.6-1.6,3.5-0.7,6c1.5-1.2,2.9-2.1,4.1-3.2
			c4.3-4.2,7.2-9.5,9.5-15c6.6-15.6,9.7-31.8,7.5-48.8c-0.3-2.5-1-5-1.6-8.2C152.1,747.5,148.5,750.1,144.9,752.8z M225,872.2
			c10-10.2,20.8-19.4,33.4-26.2c11.9-6.5,24.2-12.2,35.5-19.8c2.5-1.7,5.6-2.5,8.6-3.5c1.6-0.5,3.2-0.1,4.2,1.9
			c-1.4,0.6-2.5,1.2-3.7,1.6c-1.6,0.5-1.8,1.5-1.4,3c3.4-2,7-2.9,11-2.6c1.6,0.2,3.3-0.1,4.8-0.7c4.3-1.7,8.5-3.8,12.8-5.5
			c1.7-0.7,3.5-0.8,5.3-1.2c0.1,0.2,0.2,0.5,0.3,0.7c-0.7,0.8-1.5,1.7-2.2,2.4c-2.8,2.8-5.6,5.4-8.3,8.3L225,872.2z M14.7,720.2
			c7.4-9,22-26,23.6-37.6c2.2-16.7,11.4-28.8,26.2-36.8c3-1.6,6.3-3,8.2-6c3.1-4.7,6.4-9.4,9.3-14.3c1.5-2.4,2.6-5.1,3.5-7.7
			c0.7-1.9,0.6-3.9-0.8-5.7c-0.9-1.1-1.8-1.6-3.2-0.8c-1.9,1-3.9,1.7-5.7,2.8c-3.8,2.6-7.8,3.3-12.3,2.1c-1.8-0.5-3.1,0.2-4.1,1.6
			c-1,1.3-1.9,2.6-3,3.7c-3.2,3.3-6.6,3.5-9.9,0.3c-1.9-1.9-3.4-4.2-5.1-6.3c-0.5-0.6-1-1.2-1.7-1.5c-2.6-1.2-0.5-3.1-1.1-6
			c-1.1-5.5-2.2-11-3-16.5c-0.2-1.6,0.1-3.4,0.5-5.1c0.3-1.1,0.9-2.4,1.7-3c1.7-1.2,1.5-2.2,0.8-3.8c-1.2-2.5-2.5-5.2-1.5-8
			c2.1-6.3,2-12.7,0.9-19.2c-1.3-7.6-2.9-14.7,0.7-21.3c1.4-2.6,3.6-3.9,6.7-3.8c2.3,0.1,4.6,0.2,6.9,0c2.2-0.3,4.4-1,6.6-1.5
			c-1.1-3.7-1.1-3.7-4.2-4c-4.3-0.4-8.4,0.1-12.5,2.6c0.8-3.8,2.6-6.5,4.9-8.9c5.7-5.8,12.6-9.7,20.2-12.1c2.9-0.9,5.9-1.3,8.9-1.7
			c0.9-0.1,1.9,0.4,2.8,0.6c0,0.2,0,0.5,0,0.7c-2.7,1.2-5.4,2.4-8,3.5c0,0.1,0.1,0.2,0.1,0.4c2.4-0.3,4.8-0.5,7.3-0.8
			c-0.5,0.5-1,0.6-1.4,0.8c-7.9,2.7-15.8,5.3-23.6,8.1c-1.2,0.4-2.2,1.3-3.6,2.2c5.6,1.9,9.8,0.1,13.5-3.8c0.6,2.3,2.3,4.2-0.3,5.9
			c-0.3,0.2-0.4,0.8-0.3,1.2c0.6,3.8,1.1,7.6,1.8,11.3c1.1,6,4.3,10,10.4,11.6c3.2,0.8,6.3,2,9.3,3.4c4.5,2.1,8.8,4.6,13.2,6.9
			c5.7,3,11.7,3.3,17.7,1.7c2.1-0.5,4.2-1.5,6.4-2.3c2.7,6,2.4,11.9-0.5,17.7c-0.6,1.2-0.7,2.2-0.4,3.5c2.3,8.5,2.3,17,0.4,25.5
			c-0.3,1.2-0.8,2.3-1.3,4c-0.5-1.1-0.8-1.7-1-2.3c-1.5-4.2-2.9-8.5-4.5-12.7c-1.9-4.6-4.5-8.7-9.4-10.8c-6.6-2.9-13.4-2.1-20.6-1.3
			c0.8,1.6,1.3,3,2.2,4.1c3.5,4.1,7.2,8.1,10.9,12c3.4,3.6,6.9,6.9,10.3,10.5c1.3,1.4,2.1,3.2,3.1,4.8c-0.2,0.1-0.3,0.3-0.5,0.4
			c-1.4-0.4-2.8-0.7-4.1-1.2c-2.2-0.9-4.2-1.9-6.4-2.8c-0.8-0.3-1.8-0.3-2.6-0.4c-0.1,0.9-0.5,1.8-0.3,2.6c0.7,2.8,1.4,5.6,2.4,8.4
			c0.6,1.6,0.5,2.9-0.2,4.5c-1.5,3.1-2.8,6.3-4.2,9.5c0.2,0.1,0.4,0.2,0.5,0.3c3.1-2.3,5.5-5.6,10.1-6.5c-0.2,1.3-0.1,2.4-0.5,3.3
			c-0.8,1.9-1.9,3.6-2.9,5.4c-0.2,0.5-0.6,1-0.5,1.5c0.4,1.5-0.3,2.6-1.4,3.5c-1.1,0.9-1,1.9-1,3.1c0,2.6-0.1,5.3-0.7,7.8
			c-0.5,2.3-1.5,2.5-3.4,1c-1.1-0.9-2.2-2-3-3.1c-2.2-2.8-4.2-5.8-6.3-8.6c-0.3-0.4-1.2-1-1.6-0.8c-1.5,0.6-2.8,1.4-4.5,2.3
			c1.4,2.7,2.6,5.3,4,7.7c4.6,7.9,10.9,13.6,20.3,15.1c5.1,0.8,10.2,0.2,15.1-1c2.5-0.6,4.9-1.3,7.5-2.1c0.2,0.7,0.2,1.3,0.4,1.7
			c0.6,1.2,1.2,3.1,2.1,3.4c1,0.3,2.7-0.8,3.6-1.7c2.2-2.4,4.3-5,6.2-7.8c6-8.7,13.6-15.8,22.7-21.2c5.9-3.5,11.8-6.8,18.7-8
			c3-0.5,3.7-1.6,2.9-4.5c-0.5-1.9-1.2-3.7-1.9-5.8c3-0.2,5.2,1.2,6.5,3.4c1.6,2.7,2.8,5.5,4,8.4c0.9,2.2,1.6,4.6,2.6,7.2
			c2.5-1.7,4.6-3.3,6.9-4.9c1.9,4.4,3.8,8.5,5.6,12.6c2.1,5.2,3.5,10.5,4,16.1c0.1,1.5,0,3.1,0.4,4.5c1.8,6.6,3.9,13.2,5.8,19.8
			c0.2,0.7,0.3,1.4,0.3,2.1c-0.8,6.9,0,13.6,1.7,20.2c0.7,2.8,1.4,5.6,2.2,8.4c-0.5,0.2-0.8,0.3-1.1,0.4c-8.1,2.4-15.7,5.8-23.3,9.6
			c-4,2-8.2,3.6-12.4,5.3c-3.6,1.4-7.2,2.7-10.7,4.2c-1.9,0.8-2.3,3.1-0.7,4.6c4.2,3.9,7,8.7,7.7,14.4c0.8,6.4,1,12.9,1.6,19.3
			c0.4,3.9-0.5,7.3-2.2,10.7c-1.3,2.5-1.9,5.3-2.7,8c-0.2,0.8,0,1.8,0,3c4.5-3.1,7.1-7.4,10.2-11.4c1.5,2.2,1.9,4.4,0.9,6.4
			c-0.9,1.8-2.1,3.6-3.5,5c-2.1,2.1-4.6,3.8-6.8,5.8c-0.5,0.4-0.7,1.3-1,2c6.5-1.4,12.6-2.6,18.7-4c6.6-1.5,13.3-2.8,19.8-4.9
			c11.3-3.7,16.7-11.8,16.2-23.7c-0.2-3.9-1.1-7.7-1.7-11.5c-0.2-1.1-0.4-2.1,1-2.5c3.1,3.8,5.1,8.1,5.9,12.9
			c1.9,11.2-1.3,21.2-7.5,30.4c-3.8,5.7-8.7,9.9-15.5,11.6c-1.8,0.4-3.5,1.1-5.2,1.9c-2.9,1.4-5.4,3.4-7.3,6c1.1-0.4,2.1-1,3.2-1.5
			c2.5-1.3,4.9-2.5,7.5-3.7c1.1-0.5,2.1-0.6,2.6,1.1c0.2,0.7,1.2,1.5,2,1.8c3.7,1.4,7.3,1.1,10.7-0.8c0.9-0.5,1.6-1.6,2.3-2.4
			c-0.1-0.1-0.3-0.3-0.4-0.4c-1.8,0.6-3.5,1.3-5.3,1.8c-1.5,0.4-2.8,0-3.8-1.4c-0.9-1.4,0.1-2.2,0.8-2.9c1.5-1.5,2.9-3.2,4.7-4.2
			c2.7-1.6,5.5-2.8,8.4-4c4-1.7,6.7-4.5,7.9-8.6c0.5-1.8,0.9-3.6,1.1-5.4c2-16.7,0.5-33.1-4.5-49.2c0.1,0.1,0.3,0.3,0.5,0.5
			c0.3,0.4,0.5,0.7,0.8,1.2c4.1,7.2,7.1,14.8,9.2,22.8c1.2,4.5,1.6,9,0,13.6c-1.1,3.3-1.3,6.9-1.6,10.3c-0.1,1.5,0.3,3.1,0.6,4.7
			c0.1,0.5,0.7,1.1,1.1,1.2c0.4,0,1.2-0.4,1.4-0.9c0.7-1.5,1.4-3,1.7-4.6c0.5-2.2,2.5-1.7,3.8-2.1c0.5-0.2,1.6,0.4,2,1
			c2.5,3.1,3.3,6.7,2.6,10.6c-0.5,2.7-0.9,5.5-1.3,8.2c-0.1,0.7,0.1,1.4,0.2,2.2c0.2,0,0.4,0.1,0.6,0.1c0.7-1.1,1.5-2.1,2.1-3.3
			c1.9-4.2,3.7-8.4,5.5-12.5c0.2-0.5,0.4-1.2,0.9-1.5c4.5-2.8,9.1-5.6,13.7-8.3c1.5-0.8,2.5-0.2,2.4,1.5c0,1.1-0.3,2.2-0.8,3.2
			c-1.3,2.8-3.5,4.9-5.9,6.8c-3.3,2.5-6.6,5.1-9.7,7.9c-1.6,1.5-2.6,3.5-3.9,5.5c4.9,1.8,9.1,3.8,13.9,1.7c1.4-0.6,3.1-0.6,4.7-0.7
			c4.8-0.3,9.6-0.4,14.5-0.6c0.5,0,0.9,0.1,1.8,0.1c-0.8,0.6-1.4,1.1-1.9,1.4c-7,5-14,10-19.9,16.3c-3.7,4-7.5,7.8-11.4,11.5
			c-4.3,4.1-8.9,7.8-14.6,9.7c-1.1,0.4-3,0.7-3.3,0.2c-1-1.5,0.9-1.9,1.7-2.8c1-1.1,2.2-1.9,3.1-3.1c0.7-1,1.1-2.2,1.3-3.4
			c0.1-0.5-0.3-1.6-0.8-1.8c-1.4-0.6-1.5-1.7-1.2-2.8c0.6-2.1,1.3-4.2,2-6.2c0.2-0.6,0.4-1.2,0.7-1.8c-5.5,4.3-10.5,8.9-14.1,14.8
			c-0.7,1.2-1.2,2.5-1.5,3.8c-0.6,2.6,0.6,4.5,3.1,5.1c1.3,0.3,2.7,0.3,4.3,0.5c-0.7,0.6-1.3,1.2-2,1.7c-6.5,4.9-13.1,9.8-19.6,14.8
			c-4.9,3.8-9.8,7.6-14.5,11.6c-1.4,1.2-2.5,2.9-3.4,4.6c-1.2,2.4-0.1,3.9,2.6,3.7l-84.1,12.2c-0.9-3.5-1-6.9,0.1-10.5
			c2-6.3,1.3-12.9,1-19.3c-0.4-7.7-0.6-15.4,1.2-23.1c1.3-5.6-0.5-10.9-1.6-16.2c-1.1-5.6-2.6-11.1-3.7-16.6
			c-0.6-3.2-0.6-6.5-1-10.1c-0.3,0-1.1,0-1.8,0.3c-13.4,6-27.4,10.1-41.2,14.9c-8.7,3-17.3,6.2-25.8,9.9c-15.3,6.7-26-4.8-42.5-2.5
			L14.7,720.2z M181.2,864.9c-0.1-0.2-0.2-0.4-0.3-0.6c-1.4,0.6-2.9,1.1-4.2,1.9c-3.2,2-6.2,4.3-9.4,6.3c-2.1,1.3-3.2,1.1-4.4-0.5
			c6.8-6.5,13.6-13,20.5-19.6c-0.3-1.3-1.2-1.6-2.5-0.8c-1.2,0.7-2.4,1.4-3.6,2c-0.1,0-0.2,0-0.6-0.2c0.6-1.1,1.2-2.1,1.8-3
			c1.7-2.6,3.4-5.2,5-7.8c0.4-0.6,0.1-1.6,0.2-2.4c-0.8,0.3-1.9,0.3-2.4,0.9c-1.1,1.2-2.2,2.5-3,3.9c-6.1,11.8-14.6,21.6-24.1,30.7
			c-4.2,3.9-7.8,8.4-11.5,12.8c-1.4,1.7-2.3,3.9-3.4,5.8c0.3,0.2,0.5,0.4,0.8,0.7C155.1,886.8,168.5,876.3,181.2,864.9z
			 M218.1,832.3c1.5-1.5,2.8-3.2,3.8-5c0.6-1.1,0.8-2.6,0.7-3.8c-0.3-2.2-2.4-3.2-4-1.9c-7.5,6-15,11.9-22.3,18.1
			c-1.7,1.5-3.1,3.4-4.4,5.3c-0.4,0.5-0.6,1.7-0.2,2.2c0.3,0.5,1.4,0.7,2.1,0.5c1.8-0.4,3.5-1,4.6-1.4
			C206,842.3,212.5,837.9,218.1,832.3z M161.2,745.6c0.8,6.1,1.9,12.1,3,18.1c0.2,1.1,0.8,2.1,1.4,3c1.1,1.7,2.6,1.8,3.8,0.2
			c0.6-0.7,1.1-1.5,1.4-2.4c2.9-7.5,3.5-15.2,1-22.9c-1.5-4.8-1.7-4.8-6.3-2.8c-0.2,0.1-0.5,0.2-0.7,0.3
			C160.8,741,160.6,741,161.2,745.6z M181.3,717.6c-3.5,0.2-6.7-0.4-9.4-2.8c-1.9-1.7-4.1-1.9-6.3-1c-3.4,1.5-6.7,3.2-10,4.9
			c-0.7,0.4-1.1,1.3-1.6,2c0.7,0.4,1.4,1.2,2.1,1.2c5.9,0.5,11.8,1,17.8,1.2c1.5,0,3-1.1,4.5-1.9c2-1.1,3.9-2.4,6.3-3.9
			C183.3,717.5,182.3,717.5,181.3,717.6z M81.2,693.8c3.7-2.3,7.8-2,10.9,1c1.5,1.4,2.7,3.2,3.9,4.9c1.7,2.4,4,3.8,6.8,4.4
			c2.3,0.5,3.4-0.7,2.5-2.9c-0.5-1.2-1.5-2.3-2.3-3.4c-2.4-3-4.7-6.2-7.4-9c-4.6-4.7-7.2-4.6-11.8,0.1c-2,2.1-3.9,4.3-5.8,6.5
			c0.1,0.1,0.2,0.2,0.3,0.3C79.3,695.1,80.2,694.4,81.2,693.8z M142.4,755.8c-0.2-0.2-0.4-0.3-0.7-0.5c-0.8,0.5-1.7,0.9-2.2,1.6
			c-1.6,1.9-3.4,3.8-4.4,6c-2.8,6.1-5.3,12.2-7.7,18.4c-1.5,3.9-0.9,7.9,0.6,12C132.9,780.6,137.6,768.2,142.4,755.8z M162,801.6
			c1.2-2,1.7-4.4,2.4-6.7c0.2-0.7-0.2-1.9-0.7-2.2c-0.7-0.4-2-0.3-2.5,0.1c-1.7,1.4-3.5,2.9-4.6,4.8c-3.4,5.7-4.6,12-5,18.6
			c0,0.5,0.1,1,0.3,1.9C155.3,812.4,158.8,807.1,162,801.6z M148.7,309.7c2-0.2,4.1-0.4,6.1-0.7c1.6-0.2,3.1-0.6,4.6-0.9
			c-0.6-2.9-2.2-4.5-5.1-4.4c-6.6,0.2-11.9,3.2-16,8.2c-1.1,1.3-0.9,1.8,0.3,3.3C141.4,312.2,144.6,310.2,148.7,309.7z M135.9,794.8
			c4.3-8.3,6.9-17.1,7.3-26.5c0-0.1-0.1-0.2-0.4-0.9c-4.3,9.4-7.3,18.8-9.2,28.6c0.2,0.1,0.5,0.3,0.7,0.4
			C134.8,795.8,135.5,795.4,135.9,794.8z M160.7,315.9c-2.2-0.9-4.6-2-6.9-1.9c-4.3,0.1-7.9,2.2-11,5.3c-0.5,0.5-1.1,1-1.7,1.4
			c0.2,0.3,0.5,0.6,0.7,0.9c6.6-3.2,13.4-5.1,20.5-1.6C162.9,317.9,162.1,316.5,160.7,315.9z M161.5,325.9c0.5-0.4,0.6-1.2,1.2-2.3
			c-3.4,0.4-5.4,2.2-7.5,3.7c-0.3,0.2,0,1.3,0.1,2c0.2,0.9,0.6,1.9,0.9,2.8C157.4,329.4,159.2,327.5,161.5,325.9z"/>
		<path d="M108,525.8c1-0.4,1.8-0.7,3.2-1.2c-1.6-3.1-2.9-6.3-4.9-8.9c-2.4-3-6.9-2.1-9.6,1.6c2,4.4,7.3,5,10.5,8.5
			c-1.1,0.5-1.8,0.7-2.4,1.1c-0.9,0.5-1.5,0.3-2.2-0.5c-3-3.4-6.7-5.8-10.7-7.7c-4.2-2-8.2-1.8-12.2,0.8c-4.4,2.8-7.9,6.4-10.2,11.1
			c-0.7,1.5-1.2,3.1-1.7,4.7c0.2,0.2,0.3,0.3,0.5,0.5c2.8-1.2,5.6-2.5,8.4-3.7c4.7-2,9.4-4.2,14.2-6c3-1.1,3.6-0.7,4.7,2.3
			c0.7,2,0.9,4.1,1.3,6.2c0.4,2.1,1,2.6,3,1.8c2.1-0.8,4.1-1.9,6.2-2.7c0.8-0.3,1.7-0.1,2.5-0.1c0.6,0,1.4,0.3,1.6,0
			c0.3-0.3,0.3-1.1,0.1-1.6C109.5,530,108.8,528,108,525.8z"/>
		<path d="M188.8,730.3c4.6,12.7,4.3,26.5,8.9,39.3c-0.5,0.3-0.9,0.5-1.5,0.8c-4-11.2-7.9-22.2-11.8-33.2c2.9,18.2,6,36.3,7.3,54.7
			c0.1,0,0.3,0,0.4-0.1c3.3-6.2,5.9-12.7,6.1-19.7c0.2-8.6-0.6-17.2-2.8-25.5c-1.2-4.5-2.8-8.8-4.4-13.1
			C190.5,732.3,189.5,731.3,188.8,730.3z"/>
		<path d="M218.2,755.8c-0.8,0.6-1.5,0.9-2,1.5c-3.4,3.5-7,7-10.1,10.8c-2,2.4-2.5,5.4-2.4,8.7c0.1,3.2-0.9,6.5-1.3,9.8
			c-0.2,1.2-0.2,2.5-0.3,4.1c0.8-0.3,1.1-0.4,1.3-0.6c4.8-4.7,9.6-9.4,12.8-15.5C219.2,768.7,219.4,762.5,218.2,755.8z"/>
		<path d="M221,675.1c-0.8,9.3-1.5,18.5,1.8,27.8c0.7-0.9,1.4-1.5,1.8-2.3c3.1-6.5,4.3-13.3,2.5-20.4
			C226.3,677,224.2,675.3,221,675.1z"/>
		<path d="M263.9,755.2c-2.5-1.6-5-3-7.3-4.7c-0.8-0.6-1.6-2-1.4-2.9c0.1-0.7,1.6-1.3,2.6-1.7c1.2-0.4,2.4-0.5,3.7-0.7
			c-5.9-2.4-11.7-4.7-17.7-7.1c1.5,6,3.6,11.6,8.4,15.9C255.8,757.3,260,757.6,263.9,755.2z"/>
		<path d="M207,726.3c1.4,10.7,2.8,21.7,4.3,32.7c2.3-2.1,4-5,4.1-8.3c0.1-3.2-0.3-6.6-1.1-9.7C212.9,735.5,209.9,730.7,207,726.3z"
			/>
		<path d="M104.7,538.3c2.1-1.8,4.5-2.7,7.3-2.3c2.8,0.4,5.3,2.9,5.7,5.8c0.3,2.2-0.7,4.1-3.4,5.1c-4.8,1.9-9.7,2-15,1.4
			C100,544.1,101.7,540.8,104.7,538.3z M107.6,546.2c2.3-0.4,4.7-0.9,6.9-1.8c1.1-0.5,2-1,1.5-2.4c-0.5-1.4-1.5-2.1-2.9-1.9
			c-1.3,0.2-2.6,0.5-3.7,1.1c-2.6,1.5-5.1,3.2-7.6,4.8c-0.3,0.2-0.2,0.7,0.2,0.7C103.9,547,105.8,546.5,107.6,546.2z"/>
		<path d="M228.4,748.7c2.4-13.5-2.4-24.3-13.2-31C221,727.6,226.1,737.4,228.4,748.7z"/>
		<path d="M266,780c0.2-1.3,0.4-2.4,0.6-3.4c1-4.7,2.9-9.1,6-12.8c1.3-1.6,1.2-2.5-0.2-3.7c-0.5-0.4-0.9-0.9-1.4-1.4
			C266,762.9,263.2,774.5,266,780z"/>
		<path d="M252.2,777.1c3.6-3.9,6.3-7.8,8-12.2c0.2-0.5,0-1.1,0-1.7c-0.6,0.1-1.2-0.1-1.6,0.2c-1.8,1.1-3.4,2.4-5.1,3.6
			c-0.2,0.1-0.4,0.4-0.4,0.6c-0.3,2.7-0.7,5.3-1,8C252,775.9,252.1,776.2,252.2,777.1z"/>
		<path class="st2" d="M165.9,752.8c0.5-3.2-1.7-7.7-4-8.7c-0.1,0.1-0.3,0.2-0.4,0.3C162.9,747.1,164.4,749.8,165.9,752.8z"/>
		<path d="M161.5,744.4c1.4,2.7,2.9,5.4,4.4,8.4c0.5-3.2-1.7-7.7-4-8.7C161.8,744.2,161.6,744.3,161.5,744.4z"/>
	</g>
</g>
<g>
	<polygon points="280.9,367.9 261.8,433.2 280.9,459.4 295.5,439.8 296.8,430.8 300,399.2 303.2,396.3 301.5,391.2 300.3,383.9 	"/>
	<path class="st0" d="M343.1,490.7c0,0,5.7,7.3,5.1,25.8c-0.6,18.4-2.4,30.5-6.2,40.3c-3.8,9.8-36.2-13.6-36.2-13.6L290.2,517
		l8.6-21.5l23-13l14.6,7.9l5.4,1.1L343.1,490.7z"/>
	<path class="st0" d="M331.4,577.8c0,0-2.1,2-2.3,5.6c-0.2,3.6-1.2,6.7-1.2,6.7s0.8,16,7.6,24s12.6,12.5,14.9,20.4
		c2.3,8,3.9,17.8,7.2,23.6c3.3,5.9,2.7,33.1,2.7,33.1s0.9,14.2-1.6,23.4s-4.2,19-4.2,19l-69.7-20.7l-32.5-55.7l1.4-122.6l28.9-2.2
		l48.5,39.1L331.4,577.8z"/>
	<polygon class="st0" points="242.2,745.5 215.3,764.8 223.7,806.5 310.2,828.9 328.2,772.6 290.2,737.8 	"/>
	<g>
		<path d="M281.3,366.2c-2.2,7.9-3.8,15.9-5.7,23.9c-2.6,11-4.7,22-4.2,33.4c0.3,8.2,2.4,16.1,6,23.5c2.6,5.4,7.6,5.8,10.8,0.7
			c3.9-6.1,5.9-13.1,7.8-20c1.6-5.7,2.3-11.4,2.8-17.2c0.5-5.8,0.8-13.7,4.4-17.2c-1.6,1.6,0.3,4.5,0,6.8
			c-1.2,9.5-2.2,19.1-3.8,28.5c-3.8,21.6-7.9,43.2-11.8,64.8c-1.6,9.1-2.8,18.2-4.2,27.3c-0.1,0.8-0.1,1.7,0.1,2.6
			c0.7-3.3,1.4-6.5,2.3-9.8c1.8-6.8,3.5-13.6,5.5-20.3c0.7-2.3,1.9-4.5,3.2-6.6c3.5-5.9,8.7-8.4,15.6-7.7c4.9,0.5,9.9,0.9,14.8,1.1
			c0.9,0,1.8,0.1,2.7,0.2c3,0.3,5.1,1.6,5.8,4.8c0.4,1.7,1.2,3.3,3.6,3.8c-0.9-2.6-1.9-5.2-2.8-7.8c3.4,1,6.2,5.4,5.7,9.2
			c1.1,0.2,2.1,0.3,3.3,0.5c0.1,1.2,0.2,2.3,0.2,3.4c0,0.7,0,1.3,0,2.3c-1-0.6-1.7-1.1-2.5-1.6c-5.4-3.3-11-6-17.5-6.6
			c-4.7-0.4-8.9,0.9-12.9,3.3c-1.2,0.7-1.7,1.6-1.8,3c-0.3,4.5,1.3,7.4,5.6,8.9c3,1.1,6.3,1.6,9.3,2.7c2,0.7,3.7,2.1,5.6,3.1
			c0.1,0.1,0.2,0.3,0.3,0.3c3.6,0.9,3,3.7,2.7,6.3c-0.2,1.7,0.3,2.6,1.9,3.3c3.9,1.7,5,3.6,4.5,6.8c-5.3,0.1-10.5,0.3-15.4,0.4
			c0.3-3.5,0.4-6.9,0.8-10.4c0.2-1.7-0.1-2.6-2.1-2.1c-1,0.2-2,0.2-2.9,0.4c-4.7,1.1-9.1,0.6-13.6-1.3c-3.5-1.5-7.1-1.7-10.4,0.6
			c-0.3,0.2-0.7,0.3-1.1,0.5c0.1,0.2,0.2,0.3,0.3,0.5c2.8,0.8,5.6,1.5,8.3,2.5c0.8,0.3,1.6,1.1,1.9,1.9c1.9,4.9,2.8,10,3.7,15.2
			c1.3,7,6.2,11.4,12.4,14c5.1,2.1,10.6,3.3,15.9,4.9c1.5,0.4,2.9,1.1,4.3,1.4c1.5,0.3,1.8,1.2,1.4,2.4c-1,2.8-1.9,5.7-3.1,8.3
			c-2,4.2-4.3,8.2-6.5,12.3c-0.1,0.2-0.3,0.5-0.4,0.7c-0.2-0.1-0.4-0.2-0.6-0.2c-0.1-0.6-0.1-1.3-0.2-2.2c-3.3-0.7-6.7-1.5-10.1-2.2
			c-5.4-1.1-10.7-2.6-15.7-5.2c-0.4-0.2-1.2-0.3-1.6-0.1c-1.3,0.4-2.5,1-4,1.7c-0.6-1.5-0.9-2.8-1.5-3.9c-0.5-0.8-1.4-1.3-2.2-1.9
			c-0.5,0.6-1,1.1-1.3,1.7c-1.1,2.5-1.9,4.9-1,7.8c0.8,2.6,0.2,5.4-1.3,7.8c-0.6,1-1.2,1.4-2.4,0.6c-0.6-0.4-1.5-0.5-2.5-0.9
			c0.2,2.1,0.3,3.8,0.5,5.5c0,0.3,0.2,0.7,0.4,0.9c6,5.9,9,13.6,12,21.3c2.2,5.8,3.8,11.7,3.8,18c0,2.2-0.6,4.4-0.8,6.7
			c-0.1,0.7,0.2,1.5,0.6,2.2c0.7,1.5,1.9,2.8,2.3,4.3c2,8.7,4,17.5,5.8,26.3c0.6,3,0.7,6.1,1,9.2c-0.2,0.1-0.4,0.2-0.5,0.3
			c-0.5-0.5-1-0.9-1.4-1.4c-2.8-3.2-4.2-7.1-4.8-11.2c-1.3-8.2-2.3-16.4-3.4-24.5c-0.1-0.7-0.2-1.4-0.4-2.2c-1.3,1.2-2.5,2.3-4,3.6
			c-0.4-2.9-0.4-5.3-1-7.7c-2.3-9.6-4.7-19.2-7.3-28.8c-2-7.5-3.9-15-4.6-22.7c0-0.5-0.3-1.3-0.5-1.3c-1.8-0.4-1.7-1.9-1.8-3.1
			c-0.8-6.2-1.4-12.3-2.3-18.5c-0.4-2.5-1.2-4.9-2-7.9c-2,2-3.5,3.6-5.2,5.4c0.2-2.5,0.4-4.9,0.6-7.5c-0.6,0-1.1-0.1-1.5,0.1
			c-1.9,0.7-3.7,1.6-5.6,2.3c-1.8,0.6-2.8,1.9-2.9,3.6c-0.3,4.1,0.5,8,2.8,11.6c0.3,0.5,0.7,1,1.2,1.3c4.8,2.8,5.9,7.6,6.8,12.4
			c1.2,6.9,1.7,13.8,0.9,20.9c-0.5,4.7,0.1,9.5,0.3,14.2c0,1.2,0.7,2.4-0.9,3.2c-0.3,0.2-0.3,1.1-0.4,1.7c1.8,0.7,3.2,1,4.1-1.2
			c0.2-0.5,1-0.7,1.5-1c0.2,0.5,0.6,1,0.7,1.5c1.1,7.7-0.6,14.8-4.1,21.6c-1.5,2.9-3,5.9-4.2,9c-1.3,3.2-1.5,6.7-0.9,10
			c4.2-0.3,8.3-0.5,12.5-0.8c0.1,2.5,0.2,4.8,0.3,7c0.3,0.1,0.3,0.1,0.7,0.2c3.4-5.4,4.6-11.8,7.2-17.7c-0.2,4-0.5,8.1-0.5,12.1
			c0.2,10.4,0.4,20.8,1,31.1c0.2,4,1.4,8,2.5,12c1.4,5,5.9,8.6,11.2,8.6c4.6,0,9.2-0.5,13.9-0.7c6.5-0.3,12.7,0.5,18,4.6
			c0.6,0.5,1.7,0.5,2.6,0.5c1.3,0,2.6-0.2,4-0.2c3.2,0,5.8,1.3,7.2,4.3c1.1,2.3,2.4,4.7,2.8,7.2c0.4,2-0.3,4.2-0.7,6.2
			c-3.6,15.6-10.9,29.4-19.5,42.7c-4.3,6.7-8.5,13.5-12.5,20.4c-1.5,2.5-2.6,5.4-3.6,8.1c-0.9,2.5-1.5,5.1-2.4,7.9
			c-1.3-0.9-3.1-1.7-4.3-3.1c-7.7-8.7-18.1-12.9-28.5-17c-5-2-10.1-4-15.1-6c-1-0.4-1.9-0.8-1.2-2.2c10.5,0,21.1-0.7,31.6,1.7
			c6.9,1.6,12,5.4,15.1,11.8c0.7,1.4,1.5,2.7,2.6,4.7c0.4-1.2,0.7-1.8,0.7-2.4c0.2-1.6,0.1-3.3,0.4-4.9c0.3-2.1,0.7-4.2,1.4-6.1
			c1.5-4,0.7-8.2-2.7-10.8c-10.1-7.6-21.3-12.3-34-13.6c11.5,6.5,23.6,11.9,34.7,19c-0.1,0.2-0.2,0.5-0.3,0.7
			c-1.4-0.4-2.8-0.8-4.2-1.3c-3.7-1.6-7.4-3.3-11.1-4.9c-5.7-2.5-11.6-3.9-17.8-4.6c-5.1-0.5-10.1-1.4-15.1-2.4
			c-1-0.2-2-1.1-2.9-1.7c0.9-0.7,1.6-1.7,2.6-2.2c2.8-1.3,5.8-2.4,9.2-3.8c-4.9-1.7-9.1-3.6-13.8-3.3c0,0.2-0.1,0.3-0.1,0.5
			c0.7,5.5-0.8,7.2-6.4,7.7c-9,0.8-18,0-26.9-0.9c-1.8-0.2-3.7-0.3-5.6-0.1c16.6,4.9,33.8,7.4,51,12.1c-1.9,1.6-3.7,1.8-5.5,1.7
			c-3.7-0.1-7.4-0.6-11.1-0.7c-8.7-0.2-17.3-0.3-26-0.4c-0.6,0-1.1,0.1-1.8,0.2c-0.1,2.4,1.1,3.7,3,4.1c2.3,0.6,4.7,1.1,7,1.1
			c7.2,0,13.8,2.1,19.9,5.7c9.2,5.5,19.4,8.4,29.2,12.2c6.4,2.5,12.7,5.2,18.9,8.3c3.3,1.7,6.1,4.4,9,6.7c0.5,0.4,1,1.2,1,1.8
			c0.2,8.5,0.3,17,0.5,26c-1.2-0.4-1.8-0.6-2.5-0.8c-14.7-6.1-29.4-12.2-44.2-18.2c-9.3-3.7-18.7-7-28.6-8.9
			c-2.6-0.5-5.4-0.6-8.1-0.3c-2.6,0.2-4.7,1.8-5.7,4.4c-1.1,2.9-0.4,4.5,2.6,5.1c3,0.6,6.2,0.9,9.2,0.9c5.8,0.1,11.6,0,17.5-0.1
			c5.6-0.2,10.6,1.7,15.7,3.6c13.5,5,26.8,10.4,39.1,17.8c4.8,2.9,9.4,6.4,13.7,10c1.8,1.5,3.1,3.7,4.3,5.9c1.2,2.2,0.7,3.3-1.4,4.6
			c-3.7,2.5-3.8,3-0.6,5.9c4.1,3.7,6.8,8,7.2,13.7c0.3,4.4-1.8,7.6-5.5,8.4c-1-2.1-1.8-4.2-2.9-6.3c-2-3.9-5.2-5.6-9.6-5
			c-1.8,0.3-2.3,0.8-1.4,2.5c1.1,2,2.4,3.9,3.8,5.8c1.5,2.2,3.2,4.2,4.8,6.4l-115.1-12.5c-8-11.6-16.4-22.9-24.5-34.5
			c-3.5-5-6.8-10.3-10-15.5c-0.8-1.3-1-3-1.6-4.9c1.1,0.3,1.6,0.4,2.1,0.5c4.1,0.9,6.1-1.1,4.8-5l-1.7-3.3c-0.1-0.2,0-0.5,0.2-0.6
			c1.7-1,8.4-5.9,8.6-5.7c2.9,3,6.6,5.3,10.8,7.1c0.4,0.2,0.8,0.2,1.2,0.3c1.2,0.2,1.9-0.3,1.5-1.6c-0.3-1.1-0.7-2.2-1.3-3.1
			c-1.8-2.7-3.7-5.3-5.8-7.8c-3.1-3.7-5.4-7.7-6.4-12.4c-1-4.9-1.7-9.9-2.5-14.8c-0.5-3.2-0.9-6.4-1.4-10c1.4,0.6,2.4,1,3.4,1.5
			c3.8,2.1,5.7,2,8.9-1c1.5-1.4,2.8-3,4.1-4.6c1.8-2.4,3.3-5,5.3-7.2c7.8-9,11.3-19.7,13.2-31.2c1.7-10.5,1.2-21,0.6-31.5
			c-1.4-25.1-4.8-50.1-4.1-75.3c0.4-12.9,0.4-25.8,1.2-38.7c0.7-10.1,2.3-20.1,6.6-29.5c3.5-7.7,5.4-15.7,6.5-24
			c1.8-14.6,3.9-29.2,7.4-43.6c0.6-2.5,20.7-70.1,20.9-73c0-0.1,0.2-0.9,0.3-1.2c0.2-0.8,1.4-4.4,1.5-5c0.2-0.7,12.3-38.5,16.6-52.9
			"/>
		<path d="M302.9,571.4c-0.2,0.5-0.7,1-0.7,1.6c0,1,0.1,2.1,0.3,3.1c1.8,8.6,5.5,16.2,11.8,22.5c2.7,2.7,2.8,2.6,5.7,0.2
			c2.9-2.5,5.6-5.1,5.5-9.4c0-0.3,0-0.6-0.1-1.3C313.9,588.1,308.4,580.3,302.9,571.4z"/>
		<path d="M350.3,660.1c0,4.4-0.4,8.8,0,13.2c0.5,5.8,1.3,11.7,2.3,17.4c0.3,1.6,1.2,3.2,2.1,4.6c0.7,1.1,1.8,1.8,3.2,1.3
			c1.4-0.5,2.3-1.3,2.4-2.9c0.3-3.1-0.5-5.9-1.5-8.7c-1.3-3.9-2.3-8-3.4-11.9c-1.1-3.8-2.3-7.6-3.5-11.3c-0.2-0.7-0.6-1.2-1-1.9
			C350.8,660,350.5,660,350.3,660.1z"/>
		<path d="M317.3,531.4c1,4.4,1,4.4,4.7,4.4c5.8,0,11.6-0.2,17.1,2.8c-0.7-4.8-3.6-8.1-7.8-8.1C326.7,530.4,322.1,531.1,317.3,531.4
			z"/>
		<path d="M346.1,527.1c0.3-3.6,0.5-6.6,0.7-9.6c0-0.3-0.1-0.9-0.4-1c-2.8-1.7-5.6-3.4-8.5-4.9c-0.7-0.4-1.7,0-2.6,0
			c0.1,0.9-0.2,1.9,0.3,2.6c1.1,2,2.4,3.9,3.9,5.7C341.4,522.2,343.6,524.4,346.1,527.1z"/>
		<path d="M353.5,714.5c0.2-0.7,0.6-1.4,0.6-2.2c0.5-4.4,0-8.8-1.2-13.1c-0.7-2.4-2.4-3.9-4.4-5.1c-1.3-0.8-2-0.2-2,1.2
			c0,0.4,0,0.8,0.1,1.2c1.6,5.4,3.2,10.7,4.9,16c0.2,0.8,0.9,1.4,1.3,2.1C353.1,714.6,353.3,714.6,353.5,714.5z"/>
		<path d="M338.4,547c-0.1-4.4-3.1-7.8-7.9-8.6c-2.5-0.4-5-0.4-7.5-0.6c-1.5-0.1-1.9,1-2.2,2.1c-0.4,1.3,0.7,1.5,1.6,1.8
			C327.8,543.5,333.1,545.2,338.4,547z"/>
		<path d="M331,580.3c-3.5,2.7-4.6,6.4-3.1,9.8C329,586.7,330,583.5,331,580.3z"/>
		<path d="M343,538.4c-0.4,2.3-0.8,4.7-1.2,7c1.7,0.5,2,0.2,2.9-2.6C345.5,540.1,345.1,539,343,538.4z"/>
	</g>
</g>
<g>
	<path d="M279,366.2c-1.5-7.4,0.5-5.6,1.7-13c0-0.1,0-0.1,0-0.2v-3c0-0.1,0-0.2,0-0.3c-0.5-1.5-2.5-3.4-3.2-4.7
		c-8.2-14.2-12-9.5-15.2-14c-4.7-6.4-5.5-14.9-6.7-21.7c-0.2-1.3-0.6-6.9-0.9-10.6c0-0.1,0-0.2,0-0.4l0,0c0.7-2.2,3.1-3.3,5.3-2.5
		c0.4,0.2,1,0.3,1.6,0.5c1.5,0.4,3,0.8,4.4,1.3c0.4,0.1,0.7,0.4,1,0.7c0.4,0.4,0.3,1-0.1,1.4c-0.3,0.3-0.7,0.5-1.1,0.6
		c-2.6,0.6-5.2,1-7.8,1.4c-2.5,0.4-2.8,0.7-2.2,3.1c0.1,0.5,0.3,1,0.5,1.6c0.2,0.5,0.7,0.7,1.2,0.5c6.7-2.9,13.8-2.1,20.7-2.4
		c0.3-1.2,0.3-1.1,0.6-2.3c-0.5-0.3-1-0.6-1.5-0.8c-1.8-0.8-3.8-1.1-5.7-1.8c-1.3-0.5-2.5-1.1-3.6-2c-1.1-0.9-1.1-2.2,0.2-3
		c3.7-2.3,7.2-5.2,11.5-6.5c1.9-0.5,3.7-0.6,5.4,0.4c9.1,5.8,17.4,12.3,22.6,22.1c2,3.7,3.3,7.7,3,11.8c-0.1,2,0,4,0.4,5.9
		c1.1,5.8,0.9,11.7-0.7,17.3L310,347c0,0,0,0.1,0,0.1l-2.3,17.4l-4.6,36.7"/>
	<path class="st0" d="M281.6,312.9c0.4-1.9,0.2-2.5-1.3-3.1c-6-2.4-12.1-2.4-18,0.5c-2.5,1.3-3.2,3.5-2.4,6.3c1.5-0.5,3-0.9,4.5-1.4
		c1.9-0.7,3.8-1.6,5.7-2.3C273.9,311.3,277.7,311.5,281.6,312.9z"/>
	<path class="st0" d="M262.9,328.3c4.6-6.4,11.4-8.1,18.8-8.4c0.1-0.4,0.1-0.7,0.2-1.1c-0.7-0.1-1.4-0.2-2.1-0.4
		c-4.1-1.2-8.3-1.4-12.1,0.7c-2,1.1-3.6,3.1-5.1,5C261.5,325.2,261.5,326.8,262.9,328.3z"/>
	<path class="st0" d="M274.2,336c-0.2-1-0.3-1.9-0.6-2.9c-0.2-0.7-0.5-1.8-0.9-1.8c-2.5-0.4-5.1-1-8.3,0.3c1,0.7,1.5,1.4,2.1,1.5
		C269.3,333.5,271.8,334.2,274.2,336z"/>
</g>
</svg>
